<?xml version="1.0" encoding="utf-8"?>
<!-- Generator: Adobe Illustrator 23.0.1, SVG Export Plug-In . SVG Version: 6.00 Build 0)  -->
<svg version="1.1" id="Calque_1" xmlns="http://www.w3.org/2000/svg" xmlns:xlink="http://www.w3.org/1999/xlink" x="0px" y="0px"
	 viewBox="0 0 100 100" style="enable-background:new 0 0 100 100;" xml:space="preserve">
<style type="text/css">
	.st0{fill:#191313;}
	.st1{fill:#100F0F;}
	.st2{fill:#110C0C;}
	.st3{fill:#1C1616;}
	.st4{fill:#1A1414;}
	.st5{fill:#191515;}
	.st6{fill:#1B1212;}
	.st7{fill:#1B1919;}
	.st8{fill:#222020;}
	.st9{fill:#E9EEEE;}
	.st10{fill:#1D1A1A;}
	.st11{fill:#241B1B;}
	.st12{fill:#211414;}
	.st13{fill:#2F2828;}
	.st14{fill:#282020;}
	.st15{fill:#2D2A2A;}
	.st16{fill:#1E1D1D;}
	.st17{fill:#221E1E;}
	.st18{fill:#251D1D;}
	.st19{fill:#231F1F;}
	.st20{fill:#252626;}
	.st21{fill:#201515;}
	.st22{fill:#2D2B2B;}
	.st23{fill:#241F1F;}
	.st24{fill:#282222;}
	.st25{fill:#212525;}
	.st26{fill:#282424;}
	.st27{fill:#2F2424;}
	.st28{fill:#450808;}
	.st29{fill:#9DAAAA;}
	.st30{fill:#1A1515;}
	.st31{fill:#140202;}
	.st32{fill:#969F9F;}
	.st33{fill:#D1DCDC;}
	.st34{fill:#050303;}
	.st35{fill:#262A2A;}
	.st36{fill:#2A2A2A;}
	.st37{fill:#090707;}
	.st38{fill:#666969;}
	.st39{fill:#DCDEDE;}
	.st40{fill:#E1E6E6;}
	.st41{fill:#E0E4E4;}
	.st42{fill:#9FA1A1;}
	.st43{fill:#D7D7D7;}
	.st44{fill:#D9DDDD;}
	.st45{fill:#C4CBCB;}
	.st46{fill:#C9D1D1;}
	.st47{fill:#949696;}
	.st48{fill:#BFC5C5;}
	.st49{fill:#C8CCCC;}
	.st50{fill:#C7CBCB;}
	.st51{fill:#F6FCFC;}
	.st52{fill:#BDC0C0;}
	.st53{fill:#E2E7E7;}
	.st54{fill:#E7E8E8;}
	.st55{fill:#DFE3E3;}
	.st56{fill:#695C5C;}
	.st57{fill:#FDFDFD;}
	.st58{fill:#BEBEBE;}
	.st59{fill:#A3A4A4;}
	.st60{fill:#878A8A;}
	.st61{fill:#9B9F9F;}
	.st62{fill:#7F8383;}
	.st63{fill:#DEE5E5;}
	.st64{fill:#C5C9C9;}
	.st65{fill:#C2C5C5;}
	.st66{fill:#758282;}
	.st67{fill:#A3B2B2;}
	.st68{fill:#D6DFDF;}
	.st69{fill:#B0B3B3;}
	.st70{fill:#EFEFEF;}
	.st71{fill:#999A9A;}
	.st72{fill:#ACABAB;}
	.st73{fill:#878686;}
	.st74{fill:#EAEAEA;}
	.st75{fill:#B7B8B8;}
	.st76{fill:#A9A8A8;}
	.st77{fill:#A3A1A1;}
	.st78{fill:#959696;}
	.st79{fill:#C2BFBF;}
	.st80{fill:#A2A0A0;}
	.st81{fill:#848282;}
	.st82{fill:#8B8585;}
	.st83{fill:#777070;}
	.st84{fill:#828282;}
	.st85{fill:#AFAEAE;}
	.st86{fill:#F2F1F1;}
	.st87{fill:#E0E3E3;}
	.st88{fill:#959191;}
	.st89{fill:#4E4F4F;}
	.st90{fill:#9DA4A4;}
	.st91{fill:#6B7373;}
	.st92{fill:#B1B7B7;}
	.st93{fill:#141515;}
	.st94{fill:#272424;}
	.st95{fill:#420D0D;}
	.st96{fill:#565454;}
	.st97{fill:#939393;}
	.st98{fill:#B4B5B5;}
	.st99{fill:#969696;}
	.st100{fill:#989797;}
	.st101{fill:#8B8B8B;}
	.st102{fill:#919090;}
	.st103{fill:#DEE2E2;}
	.st104{fill:#C9C9C9;}
	.st105{fill:#929292;}
	.st106{fill:#E6E5E5;}
	.st107{fill:#E3E4E4;}
	.st108{fill:#DCE4E4;}
	.st109{fill:#D3D2D2;}
	.st110{fill:#989999;}
	.st111{fill:#B8B8B8;}
	.st112{fill:#676262;}
	.st113{fill:#969595;}
	.st114{fill:#876D6D;}
	.st115{fill:#858585;}
	.st116{fill:#9F9E9E;}
	.st117{fill:#AAA5A5;}
	.st118{fill:#A09292;}
	.st119{fill:#9D9C9C;}
	.st120{fill:#696767;}
	.st121{fill:#EEEBEB;}
	.st122{fill:#90B0B0;}
	.st123{fill:#868282;}
	.st124{fill:#676767;}
	.st125{fill:#8D7A7A;}
	.st126{fill:#494E4E;}
	.st127{fill:#979999;}
	.st128{fill:#9C9C9C;}
	.st129{fill:#A3A3A3;}
	.st130{fill:#F7FAFA;}
	.st131{fill:#545252;}
	.st132{fill:#B3B3B3;}
	.st133{fill:#433E3E;}
	.st134{fill:#EDEDED;}
	.st135{fill:#130D0D;}
	.st136{fill:#0B0909;}
	.st137{fill:#C7C6C6;}
	.st138{fill:#CACACA;}
	.st139{fill:#818484;}
	.st140{fill:#B0B6B6;}
	.st141{fill:#757979;}
	.st142{fill:#545050;}
	.st143{fill:#6A6D6D;}
	.st144{fill:#F0F0F0;}
	.st145{fill:#959595;}
	.st146{fill:#BCBFBF;}
	.st147{fill:#C6C7C7;}
	.st148{fill:#9B9B9B;}
	.st149{fill:#BAB9B9;}
	.st150{fill:#E9E8E8;}
	.st151{fill:#6F6767;}
	.st152{fill:#949090;}
	.st153{fill:#EDEFEF;}
	.st154{fill:#C0C0C0;}
	.st155{fill:#5E5A5A;}
	.st156{fill:#514A4A;}
	.st157{fill:#979898;}
	.st158{fill:#493939;}
	.st159{fill:#5D5B5B;}
	.st160{fill:#402F2F;}
	.st161{fill:#434141;}
	.st162{fill:#646262;}
	.st163{fill:#857676;}
	.st164{fill:#444343;}
	.st165{fill:#B9B7B7;}
	.st166{fill:#8C8A8A;}
	.st167{fill:#EFF1F1;}
	.st168{fill:#ECEFEF;}
	.st169{fill:#FEFEFE;}
	.st170{fill:#AEB0B0;}
	.st171{fill:#9DA1A1;}
	.st172{fill:#D5D6D6;}
	.st173{fill:#999999;}
	.st174{fill:#B6B8B8;}
	.st175{fill:#CDCFCF;}
	.st176{fill:#585858;}
	.st177{fill:#7C7C7C;}
	.st178{fill:#7B7A7A;}
	.st179{fill:#AFB0B0;}
	.st180{fill:#8C8F8F;}
	.st181{fill:#564C4C;}
	.st182{fill:#D3D4D4;}
	.st183{fill:#C5C5C5;}
	.st184{fill:#6A6969;}
	.st185{fill:#A7A5A5;}
	.st186{fill:#909090;}
	.st187{fill:#A0A0A0;}
	.st188{fill:#8A8A8A;}
	.st189{fill:#9D9D9D;}
	.st190{fill:#929090;}
	.st191{fill:#B6B6B6;}
	.st192{fill:#6D6464;}
	.st193{fill:#3A2F2F;}
	.st194{fill:#B5B4B4;}
	.st195{fill:#F7F6F6;}
	.st196{fill:#626060;}
	.st197{fill:#E2EAEA;}
	.st198{fill:#9B9C9C;}
	.st199{fill:#888787;}
	.st200{fill:#635C5C;}
	.st201{fill:#959999;}
	.st202{fill:#A6B3B3;}
	.st203{fill:#B8E6E6;}
	.st204{fill:#443838;}
	.st205{fill:#D2D2D2;}
	.st206{fill:#111111;}
	.st207{fill:#9A9A9A;}
	.st208{fill:#646464;}
	.st209{fill:#8C8282;}
	.st210{fill:#E1E5E5;}
	.st211{fill:#8E9090;}
	.st212{fill:#93B2B2;}
	.st213{fill:#836B6B;}
	.st214{fill:#929F9F;}
	.st215{fill:#A29494;}
	.st216{fill:#A28A8A;}
	.st217{fill:#BBBBBB;}
	.st218{fill:#A4B1B1;}
	.st219{fill:#967C7C;}
	.st220{fill:#CAB4B4;}
	.st221{fill:#C4BFBF;}
	.st222{fill:#897979;}
	.st223{fill:#CBC4C4;}
	.st224{fill:#918484;}
	.st225{fill:#CBC8C8;}
	.st226{fill:#D5DCDC;}
	.st227{fill:#DFD0D0;}
	.st228{fill:#857575;}
	.st229{fill:#D0D6D6;}
	.st230{fill:#B19393;}
	.st231{fill:#F1F4F4;}
	.st232{fill:#584646;}
</style>
<path d="M63.87,97c-1.08-0.01-2.15-0.03-3.23-0.02c-4.75,0.06-9.43-0.45-14.08-1.42c-2.57-0.53-4.99-1.45-7.35-2.57
	c-1.33-0.63-2.54-1.48-3.83-2.14c-1.98-1.01-3.47-2.53-4.94-4.08c-1.29-1.37-2.42-2.91-3.2-4.66c-1.72-3.84-3.16-7.78-4-11.92
	c-0.15-0.73-0.3-1.47-0.35-2.22c-0.04-0.53-0.3-0.79-0.74-0.95c-0.05-0.18,0.03-0.32,0.12-0.46c-0.07-2.41-0.32-4.8-0.6-7.2
	c-0.27-2.33-0.35-4.68-0.39-7.03c-0.07-4.41-0.04-8.81,0.6-13.18c0.86-5.79,2.13-11.48,4.44-16.9c0.22-0.51,0.43-1.02,0.81-1.45
	c0.37-0.35,0.73-0.26,1.13-0.03c0.7,0.41,1.44,0.69,2.27,0.61c0.13,0.01,0.28,0,0.37,0.08c1.57,1.32,3.15,2.63,3.98,4.59
	c0.83,1.36,1.7,2.69,2.31,4.17c0.35,0.84,0.61,1.71,0.95,2.56c0.38,0.98,0.99,1.82,1.62,2.65c1.34,1.8,2.81,3.51,3.96,5.44
	c0.21,0.36,0.5,0.69,0.8,0.98c1.26,1.18,2.24,2.62,3.49,3.81c0.16,0.15,0.27,0.36,0.4,0.54c0.14,0.23,0.07,0.51,0.15,0.76
	c0.04,0.19,0.06,0.38,0.07,0.57c0.02,0.26,0.01,0.53,0.02,0.79c0,0.12,0.01,0.23,0.01,0.34c0,3.31,0,6.61,0,9.91
	c0,0.39-0.03,0.78,0.07,1.16c0.44,4.55,1.51,8.96,2.81,13.33c0.94,3.15,2.77,5.55,5.73,7.04c0.21,0.21,0.46,0.4,0.38,0.76
	c-1.08,1.28-1.07,1.26-2.56,0.42c-0.15-0.08-0.63-0.96-0.8,0.06c0.23,1.18,0.7,2.27,1.25,3.33c0.22,0.39,0.48,0.75,0.81,1.06
	c0.33,0.41,0.66,0.84-0.16,1.07c-0.54,0.15-0.27,0.41-0.08,0.62c0.43,0.49,0.9,0.93,1.37,1.38c0.45,0.51,1.21,0.66,1.52,1.32
	c-0.45,0.62,0.06,1.07,0.29,1.56c0.05,0.07,0.09,0.15,0.14,0.22c0.03,0.03,0.05,0.07,0.08,0.1c0.06,0.06,0.11,0.13,0.16,0.2
	c0.22,0.31,0.43,0.64,0.71,0.9c0.09,0.09,0.18,0.18,0.27,0.27c0.39,0.35,0.64,0.81,1,1.18c0.63,0.58,1.37,1.03,1.94,1.68
	C63.81,96.47,64.01,96.68,63.87,97z"/>
<path d="M30.65,21.57c-0.96,0.29-1.77-0.13-2.55-0.61c-0.23-0.14-0.4-0.29-0.67-0.15c-0.21-0.31-0.06-0.58,0.07-0.86
	c0.1-0.13,0.21-0.23,0.38-0.13c0.5-0.34,0.73-0.9,1.09-1.36c1.41-1.84,2.83-3.68,4.61-5.18c3.1-2.6,6.27-5.1,9.91-6.94
	c1.57-0.79,3.06-1.74,4.64-2.51C53.03,1.41,58.16-0.04,63.65,0c2.32,0.02,4.63,0,6.95,0.05c2.79,0.06,5.51,0.56,8.12,1.55
	c2.01,0.76,4.05,1.42,5.97,2.4c1.67,0.86,3.08,2.07,4.57,3.17c0.28,0.21,0.51,0.51,0.73,0.79c0.54,0.66,1.11,1.29,1.78,1.82
	c1.01,0.8,1.78,1.81,2.52,2.85c0.21,0.3,0.38,0.61,0.43,0.97c0.09,0.55-0.16,1.07-0.62,1.33c-0.49,0.27-0.96,0.2-1.42-0.25
	c-0.16-0.16-0.3-0.35-0.43-0.53c-0.75-1-1.57-1.91-2.58-2.66c-0.45-0.33-0.79-0.77-1.15-1.19c-0.99-1.18-2.11-2.21-3.54-2.87
	c-2.6-1.2-5.11-2.59-7.91-3.35c-2.21-0.6-4.4-0.85-6.65-0.33c-0.35,0.08-0.71,0.07-1.07,0.13c-1.86,0.32-3.23,1.46-4.54,2.71
	c-2.27,2.18-4.15,4.67-5.9,7.28c-0.54,0.81-1.15,1.58-1.71,2.38c-1.29,1.83-2.01,3.94-2.95,5.94c-1.2,2.55-1.83,5.28-2.52,7.99
	c-0.47,1.83-1.09,3.61-1.48,5.47c-0.55,2.62-1.08,5.23-1.36,7.89c-0.06,0.61-0.1,1.22-0.14,1.82c-0.3,0.14-0.37-0.1-0.5-0.22
	c-1.29-1.2-2.27-2.69-3.57-3.88c-0.19-0.17-0.35-0.39-0.49-0.61c-1.21-2.02-2.74-3.81-4.15-5.68c-0.8-1.05-1.41-2.18-1.82-3.44
	c-0.69-2.12-1.74-4.06-3.11-5.82c-0.36-0.19-0.58-0.51-0.81-0.83c-1.08-1.53-2.49-2.72-3.92-3.9c-0.48-0.39-1.01-0.68-1.55-0.77
	C29.52,20.47,30.38,20.61,30.65,21.57z"/>
<path d="M73.66,99.33c-3.06,0.43-5.91-0.23-8.62-1.65c-0.31-0.16-0.62-0.33-0.94-0.5c-0.11-0.35-0.2-0.71-0.54-0.93
	c-0.54-0.67-1.33-1.05-1.9-1.67c-0.38-0.35-0.58-0.85-0.98-1.18c-0.09-0.09-0.18-0.18-0.26-0.27c-0.29-0.24-0.5-0.55-0.7-0.87
	c-0.08-0.09-0.16-0.19-0.24-0.28c-0.05-0.07-0.09-0.14-0.12-0.21c-0.06-0.11-0.14-0.21-0.2-0.32c-0.38-0.55-0.31-0.89,0.44-0.92
	c-0.07-0.27-0.34-0.3-0.48-0.46c-0.5-0.45-1.1-0.78-1.62-1.21c-0.39-0.34-0.8-0.65-1.14-1.04c-0.19-0.22-0.45-0.42-0.32-0.75
	c0.12-0.29,0.43-0.22,0.68-0.28c0.15-0.03,0.32,0.03,0.45-0.12c-0.22-0.35-0.55-0.62-0.82-0.92c-0.38-0.3-0.56-0.76-0.86-1.12
	c-0.44-1.12-1.18-2.13-1.13-3.41c0.69-0.39,1.04,0.28,1.51,0.52c0.5,0.26,0.97,0.8,1.29-0.2c0.11-0.34,0.47-0.28,0.74-0.1
	c0.35,0.23,0.69,0.48,1.05,0.8c-0.17-0.43-0.56-0.71-0.49-1.17c0.03-0.1,0.09-0.17,0.18-0.22c0.74-0.06,1.36,0.34,2.02,0.58
	c0.88,0.32,1.76,0.62,2.66,0.89c0.61,0.23,1.3,0,1.9,0.31c1.07,0.72,1.59,1.93,2.53,2.82c0.29-0.22-0.08-0.77,0.39-0.86
	c0.36-0.07,0.7,0.08,1.01,0.26c0.25,0.15,0.52,0.27,0.73,0.47c0.25,0.2,0.5,0.42,0.78,0.58c0.04-0.03,0.03-0.08-0.01-0.15
	c-0.22-0.38-0.7-0.77-0.49-1.2c0.25-0.52,0.87-0.23,1.33-0.27c0.42-0.03,0.84-0.03,1.26,0.02c0.16,0.04,0.29,0.14,0.43,0.22
	c0.09,0.05,0.12,0.07,0.08,0.06c-0.13-0.03,0.11-0.13-0.01-0.07c-0.12,0.06-0.12-0.18-0.09-0.05c-0.07-0.03-0.14-0.07-0.2-0.12
	c-0.2-0.1-0.41-0.06-0.62-0.07c-0.55,0-1.09,0.04-1.64-0.01c-0.5-0.04-0.78,0.16-0.93,0.61c-0.4,0.27-0.65-0.16-0.98-0.21
	c-0.36-0.06-0.73-0.36-1.05,0.08c-0.1,0.14-0.32,0.21-0.42,0.07c-0.48-0.67-1.45-1.05-1.29-2.11c0.47-0.39,1.04-0.22,1.57-0.26
	c0.6-0.05,1.22,0.09,1.8-0.13c1.93-0.44,3.9-0.68,5.85-1.05c2.7-0.51,5.29-1.24,7.5-3.05c2.16-1.78,2.7-4.31,1.26-6.57
	c-0.84-1.32-0.7-2.76-0.52-4.17c0.1-0.78,0.19-1.53,0.03-2.3c0.05-0.16,0.12-0.3,0.33-0.27c0.24,0.17,0.22,0.55,0.56,0.68
	c0.22-0.35,0.44-0.71,0.67-1.07c0.78-1.21,1.82-2.1,3.18-2.61c0.15-0.06,0.31-0.14,0.46-0.14c1.46-0.05,2.93-0.22,4.32,0.42
	c0.03,0.01,0.06,0.02,0.09,0.03c1.03,0.53,1.62,1.48,2.23,2.38c0.55,0.81,0.4,1.78,0.18,2.65c-0.15,0.61-0.56,1.15-0.89,1.71
	c-0.15,0.26-0.46,0.44-0.75,0.39c-0.79-0.12-1.64,0-2.36-0.49c-0.12-0.08-0.22-0.24-0.42-0.14c-0.52,0.26-1.09,0.44-1.56,0.77
	c-0.67,0.46-1.05,1.13-1.01,2c0.03,0.91,0.02,1.82,0.01,2.74c-0.01,0.49,0.05,0.97,0.21,1.43c-0.13,1.12-0.16,2.25-0.13,3.38
	c-0.01,2.42-1.07,4.48-2.33,6.44c-3.67,5.68-8.88,9.14-15.44,10.67c-1.71,0.4-3.43,0.79-5.4,0.95c1.69,1.03,3.42,1.27,5.08,1.73
	c0.73,0.18,1.47,0.04,2.2,0.1C73.08,98.93,73.53,98.8,73.66,99.33z"/>
<path class="st0" d="M27.89,19.82c-0.09,0.07-0.17,0.15-0.26,0.22c-0.33,0.25-0.62,0.03-0.9-0.11c-1.18-0.56-2.24-1.29-3.21-2.19
	c-1.75-1.61-3.37-3.34-5-5.05c-1.42-1.48-3.21-1.89-5.13-1.99c-0.85-0.04-1.14,0.52-0.74,1.3c0.11,0.2,0.26,0.38,0.38,0.57
	c0.06,0.07,0.11,0.16,0.15,0.24c0.02,0.04,0.04,0.09,0.06,0.13c0.03,0.09,0.03,0.19,0.01,0.28c-0.06,0.13-0.14,0.24-0.31,0.17
	c-0.61-0.67-1.28-1.29-1.14-2.34c0.08-0.58,0.39-0.99,0.98-0.99c2.36-0.02,4.56,0.41,6.31,2.23c1.37,1.43,2.7,2.89,4.13,4.27
	c1.23,1.19,2.51,2.24,4.1,2.9C27.52,19.55,27.7,19.7,27.89,19.82z"/>
<path class="st1" d="M88.38,79.23c-0.01-0.85,0.02-1.7-0.04-2.54c-0.04-0.46,0.38-0.67,0.42-1.06c0.99,1.65,1.32,3.51,1.74,5.35
	c0.31,1.34,0.35,2.7,0.43,4.07c0.1,1.75-0.48,3.28-1.29,4.73c-0.69,1.25-1.41,2.49-2.44,3.51c-0.2,0.05-0.29-0.07-0.34-0.23
	c-0.06-0.45,0.25-0.72,0.48-1.03c0.76-1.06,1.53-2.12,2.07-3.31c0.78-1.73,1-3.53,0.72-5.44c-0.32-2.19-0.78-4.33-1.44-6.33
	C88.73,77.68,89.18,78.51,88.38,79.23z"/>
<path class="st2" d="M73.66,99.33c-0.69-0.36-1.43-0.07-2.15-0.17c-0.4-0.05-0.83,0.14-1.18-0.19c0.37-0.38,0.85-0.27,1.29-0.27
	c4.92,0,9.4-1.41,13.4-4.28c0.29-0.21,0.57-0.44,0.95-0.46c0.17,0.04,0.3,0.11,0.24,0.33c-1.01,1.15-2.4,1.74-3.68,2.48
	C79.8,98.38,76.78,99.04,73.66,99.33z"/>
<path class="st3" d="M63.29,39.07c1.91-0.84,3.88-0.73,5.85-0.31c1.08,0.23,1.38,0.12,1.84-0.9c0.52-1.15,1.19-2.14,2.33-2.79
	c1.87-1.07,2.48-0.44,2.66,1.3c0.02,0.16,0.01,0.33,0.01,0.49c-0.15,0.19,0.01,0.47-0.18,0.65c-0.24,0.01-0.31-0.16-0.37-0.34
	c-0.02-0.09-0.03-0.18-0.04-0.26c0-0.33,0-0.67-0.1-0.99c-0.04-0.15-0.07-0.29-0.15-0.43c-0.04-0.06-0.09-0.11-0.14-0.16
	c-0.07-0.04-0.13-0.07-0.2-0.1c-0.42-0.01-0.73,0.24-1.06,0.43c-0.34,0.24-0.73,0.4-1.06,0.67c-0.15,0.12-0.29,0.26-0.39,0.43
	c-0.04,0.07-0.08,0.13-0.12,0.19c-0.04,0.06-0.09,0.13-0.14,0.19c-0.02,0.03-0.05,0.06-0.07,0.1c-0.09,0.14-0.15,0.29-0.22,0.44
	c-0.34,0.74-0.56,1.57-1.45,1.89c-0.14,0.03-0.29,0.03-0.43,0.01c-0.63-0.09-1.24-0.21-1.87-0.32c-0.32-0.09-0.65-0.16-0.99-0.15
	c-0.19,0-0.38,0-0.58,0c-0.14,0-0.29,0-0.43,0c-0.37,0-0.75-0.03-1.11,0.09c-0.27,0.07-0.54,0.17-0.82,0.23
	c-0.19,0.03-0.38,0.04-0.58-0.02C63.38,39.32,63.26,39.24,63.29,39.07z"/>
<path class="st4" d="M2.94,31.61c-0.24-0.14-0.35-0.39-0.44-0.62c-0.31-0.8-0.23-1.58,0.55-1.91c0.26-0.11,0.55-0.2,0.72-0.51
	c-0.58-0.28-0.92-0.8-1.27-1.3c-1-1.41-0.46-2.88,1.22-3.31c0.88-0.22,1.79-0.35,2.65-0.65c0.27-0.09,0.58-0.09,0.82-0.37
	c-0.37-0.36-0.95-0.37-1.29-0.76c-0.04-0.19,0.08-0.27,0.24-0.32c0.63-0.04,1.12,0.32,1.61,0.62c0.57,0.35,0.53,0.78-0.09,1.08
	c-0.79,0.38-1.65,0.59-2.51,0.78c-0.19,0.04-0.38,0.07-0.57,0.12c-0.76,0.18-1.65,0.29-1.82,1.22c-0.17,0.97,0.51,1.62,1.19,2.2
	c0.12,0.1,0.28,0.16,0.42,0.25c0.61,0.43,0.6,0.65-0.05,1.03c-1.3,0.76-1.3,0.76-1.05,2.25C3.21,31.57,3.14,31.69,2.94,31.61z"/>
<path class="st5" d="M8.25,50.21c-0.56-0.1-0.67-0.39-0.46-0.91c0.15-0.37,0.44-0.64,0.6-1c-0.17-0.27-0.46-0.21-0.7-0.28
	c-0.78-0.24-0.88-0.44-0.59-1.2c0.04-0.12,0.12-0.22,0.18-0.34c-0.55-0.47-1.13-0.88-1.22-1.66c-0.09-0.76,0.37-1.28,0.83-1.92
	c-0.28-0.13-0.53-0.24-0.78-0.36c-0.95-0.47-1.19-1.46-0.44-2.22c0.45-0.45-0.01-0.5-0.16-0.71c-0.04-0.18,0.07-0.26,0.22-0.31
	c1.16,0.21,1.27,0.48,0.58,1.38c-0.49,0.64-0.41,1,0.32,1.37c1.13,0.57,1.13,0.57,0.48,1.7c-0.54,0.94-0.48,1.27,0.41,1.95
	c0.31,0.24,0.54,0.49,0.41,0.89c-0.19,0.57,0.06,0.86,0.59,0.99c0.75,0.18,0.77,0.66,0.37,1.15c-0.39,0.49-0.4,0.91-0.01,1.37
	C8.72,50.39,8.49,50.31,8.25,50.21z"/>
<path class="st6" d="M3.94,20.43c-0.44-1.11-0.12-1.79,0.98-2.03c0.95-0.2,1.92-0.39,2.9-0.37c0.35,0.01,0.7,0,1.29,0
	c-0.59-0.56-1.07-0.87-1.57-1.1c-0.79-0.36-1.18-0.98-1.4-1.77c-0.17-0.64-0.08-0.89,0.52-1.18c0.59-0.29,1.21-0.47,1.88-0.44
	c0.42,0.02,0.85-0.05,1.27,0.06c-0.36,0.76-1.15,0.23-1.66,0.55c-0.45,0.25-1.2,0.16-1.24,0.89c-0.03,0.66,0.48,1.01,0.99,1.34
	c0.66,0.42,1.33,0.81,2,1.2c0.2,0.11,0.4,0.27,0.36,0.53c-0.03,0.27-0.27,0.34-0.5,0.4c-0.57,0.16-1.14,0.24-1.73,0.22
	c-0.78-0.03-1.55,0.08-2.32,0.19c-0.81,0.11-1.33,0.46-1.43,1.31C4.23,20.37,4.13,20.48,3.94,20.43z"/>
<path class="st7" d="M83.84,64.89c-0.07,0.08-0.14,0.16-0.22,0.25c-0.35,0-0.5-0.26-0.65-0.51c-0.73-1.23-1.6-2.36-2.48-3.48
	c-1.11-1.42-2.01-2.94-2.21-4.78c-0.04-0.32-0.18-0.62-0.27-0.93c-0.09-0.35-0.24-0.67-0.4-0.99c-0.27-0.59-0.59-1.17-0.87-1.75
	c-0.04-0.08-0.07-0.17-0.09-0.26c-0.05-0.23-0.05-0.46,0.01-0.68c0.04-0.14,0.11-0.26,0.19-0.38c0.19-0.19,0.11-0.61,0.52-0.61
	c0.24,0.27,0.14,0.57,0.07,0.87c-0.31,0.29-0.29,0.6-0.09,0.96c0.3,0.54,0.55,1.1,0.82,1.65c0.46,0.9,0.81,1.85,0.94,2.85
	s0.59,1.83,1.17,2.63c1.11,1.56,2.35,3.02,3.34,4.66C83.69,64.53,83.76,64.71,83.84,64.89z"/>
<path class="st8" d="M58.57,42.13c0.24-0.26,0.51-0.46-0.01-0.79c-1.61-1-2.25-2.63-2.63-4.39c-0.11-0.51-0.08-1.06,0.23-1.51
	c0.72-1.03,1.42-1.11,2.42-0.51c0.06,0.17-0.04,0.25-0.17,0.31c-0.13,0.04-0.26,0.04-0.39,0.01c-0.27-0.07-0.55-0.15-0.83-0.02
	c-0.15,0.08-0.26,0.2-0.35,0.34c-0.03,0.07-0.07,0.14-0.1,0.21c-0.06,0.14-0.08,0.29-0.08,0.44c0,0.12,0.01,0.24,0.01,0.36
	c0,0.29,0.02,0.58,0.12,0.86c0.14,0.49,0.29,0.98,0.52,1.44c0.04,0.07,0.07,0.15,0.11,0.23c0.1,0.23,0.2,0.45,0.37,0.64
	c0.28,0.31,0.58,0.61,0.9,0.89c0.23,0.19,0.52,0.29,0.76,0.47c0.18,0.16,0.28,0.34,0.24,0.59c-0.03,0.13-0.11,0.25-0.19,0.35
	c-0.15,0.16-0.31,0.32-0.52,0.41c-0.09,0.02-0.18,0.02-0.27-0.01C58.57,42.38,58.47,42.29,58.57,42.13z"/>
<path class="st9" d="M30.65,21.57c-0.62-0.85-1.62-1.08-2.53-1.41c0.06-0.23,0.18-0.28,0.32-0.25c0.67,0.13,1.34,0.27,1.89,0.72
	c1.7,1.37,3.32,2.83,4.57,4.65c0.09,0.13,0.14,0.28,0.21,0.43c-0.17,0.07-0.2,0.22-0.22,0.38c-1.13-1.55-2.38-3-3.86-4.23
	C30.91,21.75,30.78,21.66,30.65,21.57z"/>
<path class="st10" d="M75.61,37.04c0.01,0.16,0.03,0.31,0.17,0.42c0.1,0.57-0.04,1.09-0.36,1.56l0,0c-0.1,0.1-0.09,0.23-0.13,0.35
	c-0.19,0.53-1.04,0.67-0.87,1.42c0.24,0.34,0.68,0.5,0.83,0.91c0.11,0.17-0.01,0.26-0.14,0.33c-0.56,0.05-0.79-0.44-1.15-0.71
	c-0.21-0.24-0.53-0.37-0.6-0.72c0-0.25,0.15-0.41,0.33-0.55c0.25-0.17,0.46-0.38,0.61-0.64c0.41-0.69,0.75-1.41,0.97-2.17
	C75.35,37.12,75.45,37.03,75.61,37.04z"/>
<path class="st11" d="M8.06,13.93c0.27-0.26,0.62-0.13,0.93-0.16c0.28-0.03,0.59,0.09,0.83-0.17c0.97-0.07,1.92,0.22,2.9,0.15
	c0.3-0.02,0.31-0.14,0.23-0.36c0.07-0.07,0.14-0.15,0.22-0.22c0.12-0.05,0.23-0.05,0.34,0.01c0.62,0.7,0.58,1.11-0.19,1.2
	c-1.72,0.18-3.42-0.08-5.12-0.31C8.14,14.06,8.1,13.98,8.06,13.93z"/>
<path class="st12" d="M49.98,47.23c1.02,0.13,1.99-0.12,2.95-0.42c0.49-0.15,0.96-0.38,1.49-0.37c0.72-0.2,1.48,0.09,2.2-0.17
	l0.01-0.01c0.11-0.11,0.24-0.12,0.37-0.06c0.07,0.06,0.11,0.15,0.13,0.24c0,0.15-0.06,0.27-0.2,0.35c-0.27,0.12-0.56,0.1-0.84,0.11
	c-0.14,0-0.28,0-0.42,0c-0.14,0-0.28,0-0.42,0c-0.37-0.02-0.72,0.08-1.07,0.2c-0.33,0.1-0.64,0.22-0.97,0.32
	c-0.21,0.06-0.42,0.08-0.63,0.09c-0.62-0.02-1.2,0.27-1.82,0.18C50.43,47.66,49.99,47.78,49.98,47.23z"/>
<path class="st13" d="M63.29,39.07c0.08,0.07,0.16,0.13,0.24,0.2c-0.14,0.51-0.58,0.57-0.99,0.69c-0.1,0-0.19-0.01-0.28-0.03
	c-0.98-0.46-1.34-1.43-1.86-2.27c-0.11-0.32-0.26-0.64-0.19-1c0.03-0.1,0.09-0.18,0.18-0.23c0.41,0.65,0.81,1.31,1.22,1.96
	c0.12,0.19,0.24,0.38,0.39,0.55c0.28,0.34,0.59,0.61,1.02,0.18C63.07,39.05,63.2,39.08,63.29,39.07z"/>
<path class="st14" d="M4.49,35.88c0.03-0.18-0.03-0.28-0.21-0.37c-0.43-0.23-0.85-0.47-1.24-0.75c-0.68-0.49-0.72-0.78-0.3-1.61
	c0.16,0.03,0.27,0.11,0.35,0.25c0.15,0.9,0.91,1.16,1.58,1.54c0.76,0.44,0.77,0.68,0.13,1.23C4.64,36.13,4.54,36.04,4.49,35.88z"/>
<path class="st15" d="M57.06,46.25c-0.14,0.01-0.29,0.02-0.43,0.03c0.29-0.98,0.5-1.98,0.92-2.92c0.23-0.5,0.49-0.97,1.01-1.23
	c0.08,0.08,0.16,0.17,0.24,0.25C57.95,43.55,57.92,45.08,57.06,46.25z"/>
<path class="st16" d="M75.03,41.97c0.08-0.09,0.15-0.17,0.23-0.26c0.42,0.35,0.62,0.83,0.78,1.32c0.23,0.74,0.39,1.5,0.59,2.25
	c-0.01,0.05-0.02,0.09-0.02,0.14c-0.06,0.19-0.13,0.37-0.39,0.28C75.54,44.54,75.33,43.24,75.03,41.97z"/>
<path class="st17" d="M4.49,35.88c0.08,0.07,0.17,0.15,0.25,0.22c-0.3,1.12-0.11,2.1,0.84,2.86c0.13,0.1,0.19,0.26,0.17,0.44
	c-0.08,0.07-0.16,0.14-0.24,0.22c-0.73-0.35-1.26-0.96-1.54-1.66C3.69,37.22,3.69,36.41,4.49,35.88z"/>
<path class="st18" d="M22.4,66.81c-0.08,0.07-0.16,0.14-0.24,0.22c-0.61-0.27-1.06-0.68-1.22-1.36c-0.07-0.29-0.24-0.38-0.56-0.35
	c-0.43,0.04-0.91,0.13-1.17-0.39c-0.08-0.2,0.04-0.28,0.2-0.35C21.22,64.22,21.71,65.66,22.4,66.81z"/>
<path class="st19" d="M14.53,59.99c-0.05-0.03-0.06-0.06-0.04-0.12c-0.05-0.16-0.05-0.33-0.15-0.47c-0.15-0.4-0.19-0.9-0.85-0.74
	c-0.2,0.05-0.32-0.12-0.41-0.32c-0.19-0.42-0.25-0.86-0.22-1.31c0.02-0.38,0.04-0.77,0.06-1.15c0.1-0.07,0.19-0.07,0.28,0.01
	c0.38,0.53,0.03,1.19,0.34,1.73c0.65,0.42,1.45,0.71,1.37,1.72c0.01,0.14,0,0.28-0.03,0.42c-0.03,0.09-0.07,0.17-0.12,0.25
	C14.69,60.06,14.61,60.06,14.53,59.99z"/>
<path class="st20" d="M15.93,61.56c-0.11-0.37-0.04-0.76-0.05-1.13c-0.34-0.34-0.81,0-1.17-0.22v0c-0.05-0.07-0.04-0.14,0.01-0.21
	l0,0c0.08-0.07,0.17-0.13,0.26-0.17c0.36-0.1,0.72-0.09,1.08,0.04c0.14,0.07,0.25,0.18,0.33,0.31c0.2,0.85,0.19,1.75,0.61,2.55
	c0.03,0.1,0.03,0.2,0.02,0.3c-0.02,0.1-0.07,0.18-0.14,0.26c-0.53-0.25-0.78-0.68-0.81-1.26C16,61.86,16.01,61.7,15.93,61.56z"/>
<path class="st16" d="M77.41,51.62c-0.06-0.28,0.06-0.6-0.19-0.84c-0.08-0.05-0.14-0.13-0.18-0.22C77.01,50.47,77,50.38,77,50.28
	c0-0.15,0.03-0.3,0.06-0.44c0.23-1.02-0.34-1.94-0.38-2.93c-0.01-0.32-0.15-0.63,0.02-0.93c0.04-0.03,0.08-0.07,0.12-0.1
	c0.69,1.75,0.92,3.56,0.75,5.42C77.56,51.42,77.52,51.54,77.41,51.62z"/>
<path class="st21" d="M49.98,47.23c0.51,0.41,1.1,0.24,1.64,0.14c0.38-0.07,0.75-0.12,1.14-0.09c-0.04,0.31-0.3,0.34-0.53,0.42
	c-0.14,0.04-0.28,0.09-0.42,0.12c-1.32,0.31-2.43-0.11-3.42-0.96c-0.31-0.23-0.01-0.43,0.04-0.64
	C49.09,46.34,49.46,46.89,49.98,47.23z"/>
<path class="st22" d="M11.79,55.67c-0.61-0.17-0.73-0.63-0.79-1.19c-0.07-0.66,0.23-1.28,0.13-1.93c0.03-0.21,0.11-0.39,0.35-0.44
	c0.5,0.3,0.39,0.78,0.3,1.19c-0.17,0.72-0.07,1.38,0.27,2.02C12.05,55.51,11.95,55.61,11.79,55.67z"/>
<path class="st23" d="M2.99,33.37c-0.08-0.08-0.17-0.15-0.25-0.23h0c0.11-0.03,0.16-0.12,0.2-0.21c0.16-0.36,0.52-0.52,0.85-0.76
	c-0.27-0.28-0.72-0.21-0.86-0.56c0.08-0.08,0.15-0.15,0.23-0.23c0.3-0.12,0.58-0.01,0.84,0.11c0.74,0.34,0.81,0.79,0.15,1.28
	C3.81,33.02,3.51,33.42,2.99,33.37z"/>
<path class="st24" d="M3.94,20.43c0.08-0.08,0.15-0.17,0.23-0.25c0.64,0.62,1.49,1,1.98,1.79c-0.08,0.07-0.17,0.15-0.25,0.22
	c-0.52-0.17-0.96-0.49-1.39-0.81C4.2,21.14,3.95,20.85,3.94,20.43z"/>
<path class="st25" d="M16.87,63.27c0-0.06,0.01-0.11,0.01-0.17c0.44-0.34,0.94-0.25,1.43-0.19c0.72,0.37,1.03,1,1.11,1.77
	c-0.07,0.08-0.14,0.17-0.22,0.25c-0.35-0.26-0.61-0.61-0.72-1.01c-0.14-0.53-0.47-0.63-0.94-0.59
	C17.32,63.34,17.1,63.29,16.87,63.27z"/>
<path class="st26" d="M8.25,50.21c0.2-0.04,0.44,0.03,0.59-0.18c0.74-0.4,0.92,0.1,0.99,0.65c0.06,0.48-0.06,0.96-0.29,1.39
	c-0.76,0.18-0.24-0.52-0.48-0.7c-0.02-0.29,0.27-0.52,0.13-0.86C8.94,50.28,8.5,50.52,8.25,50.21z"/>
<path class="st27" d="M60.38,36.42c-0.03,0.12-0.06,0.24-0.08,0.36c-0.69-0.49-1.49-0.85-1.96-1.62c0.08-0.07,0.16-0.15,0.24-0.23
	C59.29,35.29,60,35.66,60.38,36.42z"/>
<path class="st28" d="M11.4,52.19c-0.02,0.18-0.09,0.32-0.28,0.37c-0.56-0.06-1.14,0.13-1.69-0.13c0.03-0.19,0.13-0.32,0.3-0.41
	C10.31,51.86,10.89,51.73,11.4,52.19z"/>
<path class="st29" d="M74.42,40.81c-0.31-0.1-0.32-0.27-0.1-0.49c0.34-0.34,0.69-0.67,0.94-1.09c0.06-0.07,0.11-0.06,0.17,0
	C75.32,39.9,74.63,40.2,74.42,40.81z"/>
<path class="st30" d="M86.22,94.29c-0.09-0.08-0.18-0.17-0.26-0.25c0.09-0.58,0.43-0.91,1-1.01c0.08,0.09,0.16,0.18,0.25,0.27
	C86.95,93.71,86.62,94.03,86.22,94.29z"/>
<path class="st31" d="M11.79,55.67c0.08-0.08,0.15-0.16,0.23-0.23c0.37-0.26,0.74-0.23,1.11-0.02c0.13,0.15,0.13,0.3,0.01,0.46
	c-0.07,0.01-0.15,0.01-0.22,0.02C12.56,55.78,12.13,55.96,11.79,55.67z"/>
<path class="st32" d="M75.42,39.03c0.06-0.54,0.39-1.01,0.36-1.56c0.07-0.2,0.14-0.4,0.21-0.61C76.01,37.64,76.08,38.43,75.42,39.03
	z"/>
<path class="st15" d="M56.62,46.28c-0.71,0.38-1.47,0.12-2.2,0.17C55.13,46.13,55.89,46.36,56.62,46.28z"/>
<path class="st33" d="M63.7,96.2c0.36,0.23,0.84,0.41,0.41,0.98c-0.13,0.01-0.21-0.05-0.24-0.18c-0.05-0.26-0.25-0.41-0.38-0.61
	C63.48,96.23,63.51,96.12,63.7,96.2z"/>
<path class="st34" d="M9.61,52.17c-0.06,0.09-0.12,0.17-0.18,0.26c-0.61-0.23-0.62-0.25-0.37-1.05c0.29,0.16-0.04,0.67,0.41,0.74
	l0.08-0.03L9.61,52.17z"/>
<path class="st35" d="M14.7,60.2c0.4,0.05,0.85-0.21,1.17,0.22C15.5,60.26,15.05,60.53,14.7,60.2z"/>
<path class="st16" d="M76.62,45.28c0.16,0.17,0.25,0.35,0.2,0.59l-0.05,0.04c-0.4-0.05-0.25-0.32-0.21-0.54
	C76.58,45.34,76.6,45.31,76.62,45.28z"/>
<path class="st35" d="M14.35,59.4c0.17,0.12,0.17,0.29,0.15,0.47C14.36,59.74,14.33,59.58,14.35,59.4z"/>
<path class="st36" d="M15.93,61.56c0.15,0.12,0.16,0.28,0.14,0.45C15.95,61.88,15.9,61.73,15.93,61.56z"/>
<path class="st32" d="M75.44,39.23h-0.08l-0.08,0c0-0.11,0.02-0.2,0.15-0.2C75.43,39.1,75.43,39.16,75.44,39.23z"/>
<path class="st14" d="M2.95,32.93c-0.03,0.11-0.09,0.18-0.2,0.21C2.77,33.03,2.84,32.96,2.95,32.93z"/>
<path class="st35" d="M14.72,59.99c0,0.07-0.01,0.14-0.01,0.21c-0.13-0.02-0.18-0.09-0.17-0.21C14.59,59.99,14.66,59.99,14.72,59.99
	z"/>
<path class="st37" d="M57.23,80.35c0.32-0.02,0.26-0.2,0.16-0.39c-0.38-0.72-0.65-1.49-0.84-2.28c-0.05-0.19-0.08-0.38-0.09-0.58
	c-0.04-0.56,0.04-0.62,0.59-0.46c0.09,0.02,0.17,0.07,0.39,0.17c-0.7-1.24-1.09-2.46-1.28-3.75c-0.03-0.23-0.14-0.45,0.09-0.62
	c0.24-0.18,0.46,0,0.62,0.12c1.89,1.39,3.81,2.76,5.28,4.6c0.99,1.24,1.68,2.7,2.8,3.87c0.37,0.39,0.64,0.9,0.69,1.48
	c-0.04,0.21-0.2,0.31-0.38,0.39c-0.35-0.18-0.72-0.19-1.1-0.19c-0.3,0-0.64,0.11-0.88-0.2c0.14-0.17,0.33-0.18,0.53-0.21
	c0.25-0.04,0.58,0.09,0.71-0.18c0.15-0.31-0.13-0.56-0.32-0.76c-1.08-1.11-1.83-2.44-2.66-3.72c-0.12-0.19-0.26-0.38-0.41-0.54
	c-0.22-0.24-0.44-0.48-0.71-0.67c-1.15-0.83-2.16-1.85-3.4-2.9c0.19,1.12,0.49,1.95,0.98,2.72c0.32,0.49,0.58,1.02,0.8,1.56
	c0.11,0.27,0.22,0.59-0.07,0.8c-0.3,0.22-0.55-0.03-0.77-0.2c-0.18-0.14-0.33-0.32-0.56-0.51c0.03,0.84,0.53,1.46,0.71,2.18
	c0.02,0.28-0.06,0.55-0.19,0.8c-0.05,0.08-0.13,0.13-0.22,0.15c-0.04-0.01-0.09-0.03-0.13-0.04C57.65,80.65,57.33,80.56,57.23,80.35
	z"/>
<path class="st38" d="M48.39,46.87c0.12-0.11,0.27-0.25,0.41-0.08c0.83,1.06,1.98,0.89,3.11,0.84c0.08-0.04,0.16-0.04,0.23,0.02
	c0.08,0.06-0.01,0.25,0.18,0.22c-0.04-0.05-0.08-0.1-0.12-0.15c-0.05-0.04-0.07-0.08-0.06-0.13c0-0.05,0.01-0.08,0.02-0.08
	c0.21-0.06,0.45-0.05,0.62-0.22c0.17-0.02,0.34-0.05,0.51-0.07c0.16-0.07,0.26,0.02,0.34,0.14c0.1,0.21,0.14,0.43,0.19,0.66
	c0.02,0.09,0.01,0.18,0,0.27c-0.03,0.09-0.07,0.16-0.14,0.23c-0.43,0.3-0.9,0.51-1.42,0.62c-0.08,0.03-0.16,0.05-0.24,0.07
	c-0.12,0.04-0.24,0.07-0.37,0.11c-0.08,0.03-0.17,0.04-0.26,0.04c-0.24-0.02-0.41-0.15-0.55-0.33c-0.22-0.44-0.5-0.79-1.05-0.79
	c-0.09-0.02-0.17-0.05-0.25-0.09c-0.08-0.04-0.15-0.09-0.22-0.14c-0.04-0.02-0.07-0.05-0.11-0.08c-0.25-0.16-0.44-0.43-0.77-0.46
	C48.42,47.26,48.4,47.07,48.39,46.87z"/>
<path class="st39" d="M52.15,50.41c-0.14,0.39-0.2,0.94-0.72,0.91c-0.52-0.03-0.78-0.52-1.03-0.94c-0.05-0.08-0.04-0.19-0.04-0.29
	c0-0.4-0.23-0.46-0.57-0.49c-0.82-0.07-0.81-0.08-1.18-0.9c0,0.62,0,1.1,0,1.57c0.01,3.06,0.02,6.12,0.02,9.19
	c0,0.19-0.03,0.39-0.05,0.58c-0.23-0.59-0.18-1.22-0.18-1.83c-0.02-3.16-0.01-6.32-0.01-9.48c0-0.1,0.03-0.19,0.04-0.29
	c0.26-0.25,0.63-0.27,0.76,0c0.33,0.68,0.83,0.55,1.37,0.43c0.09,0.02,0.17,0.06,0.25,0.12c0.05,0.08,0.08,0.16,0.09,0.26
	c0,0.09-0.01,0.18-0.03,0.27c-0.09,0.56-0.07,1.04,0.67,1.06c0.1-0.06,0.19-0.14,0.3-0.2c0.07-0.04,0.15-0.05,0.23-0.03
	C52.09,50.36,52.12,50.39,52.15,50.41z"/>
<path class="st40" d="M57.83,80.94c-0.22-0.33,0.14-0.51,0.19-0.78c0.35-0.04,0.37,0.24,0.44,0.46c-0.04,0.19,0,0.36,0.09,0.53
	c0.21,0.54,0.77,0.86,0.99,1.54c-0.94-0.17-1.35-1.01-2.11-1.23c-0.05,0.04-0.13,0.07-0.15,0.12c-0.3,1.08-0.3,1.07-1.26,0.48
	c-0.5-0.31-1-0.6-1.5-0.91c-0.15,0.05-0.22,0.29-0.44,0.17c-0.03-0.13-0.06-0.25-0.09-0.38c-0.08-0.4,0.1-0.49,0.42-0.31
	c0.62,0.34,1.22,0.72,1.83,1.08c0.14,0.08,0.28,0.15,0.44,0.23c0.21-0.44,0.22-1.02,0.89-0.99l0,0.04
	C57.68,81.02,57.78,81.1,57.83,80.94z"/>
<path class="st41" d="M56.44,85.64c0.43,0.4,0.87,0.8,1.43,1.31c-0.69,0-1.21,0-1.89,0c0.44,0.83,1.14,1.25,1.64,1.83
	c0.03,0.19-0.03,0.28-0.23,0.22c-0.82-0.63-1.58-1.29-2.03-2.25c0.41-0.32,0.83-0.06,1.19-0.24c0.09-0.31-0.28-0.39-0.33-0.63
	C56.16,85.67,56.25,85.6,56.44,85.64z"/>
<path class="st42" d="M50.74,49.04c-0.27-0.04-0.48,0.08-0.72,0.2c-0.49,0.26-0.71,0.2-0.83-0.35c-0.12-0.53-0.43-0.46-0.78-0.45
	c0-0.07,0-0.13,0-0.2c0.26-0.26,0.47-0.65,0.95-0.39l0,0c0.07,0.06,0.13,0.13,0.2,0.19h0C50.11,48.21,50.84,48.14,50.74,49.04z"/>
<path class="st43" d="M54.09,81.33c0.14-0.06,0.29-0.11,0.44-0.17c-0.08,0.78,0.31,1.43,0.57,2.11c0.17,0.45,0.38,0.88,0.58,1.32
	c0.08,0.22-0.04,0.28-0.23,0.27C54.81,83.76,54.22,82.63,54.09,81.33z"/>
<path class="st44" d="M59.22,89.93c0.37,0.18,0.73,0.37,1,0.75c-0.4,0.36-0.82-0.26-1.18,0.09c0,0.29,0.28,0.47,0.33,0.75
	c0.06,0.05,0.1,0.12,0.13,0.19c0.06,0.04,0.09,0.09,0.09,0.16c0.04,0.06,0.05,0.13,0.05,0.2c-0.02,0.03-0.05,0.05-0.07,0.08
	c-0.07,0.01-0.14,0-0.2-0.05l0,0c-0.06-0.06-0.1-0.13-0.14-0.2c-0.2-0.3-0.39-0.59-0.59-0.89c-0.34-0.52-0.34-0.52,0.32-0.83
	C58.91,89.96,58.99,89.87,59.22,89.93z"/>
<path class="st45" d="M63.7,96.2c-0.07,0.06-0.14,0.12-0.21,0.18c-0.6-0.64-1.43-1.02-1.97-1.73c0,0,0.02-0.08,0.02-0.08
	c0.03-0.05,0.07-0.09,0.12-0.13l0.09-0.01C62.37,95.04,63.21,95.44,63.7,96.2z"/>
<path class="st46" d="M59.22,89.93c-0.09,0.09-0.18,0.18-0.27,0.26c-0.49-0.44-1.12-0.7-1.57-1.2c0.08-0.07,0.15-0.15,0.23-0.22
	C58.19,89.1,58.76,89.45,59.22,89.93z"/>
<path class="st47" d="M49.37,47.85c-0.39-0.04-0.57,0.41-0.95,0.39c0-0.26,0.01-0.52,0.01-0.78c0.14-0.03,0.17-0.47,0.39-0.14
	C48.97,47.55,49.25,47.61,49.37,47.85z"/>
<path class="st48" d="M60.74,93.28c0.45,0.29,0.69,0.75,1,1.16c-0.02,0.03-0.04,0.06-0.07,0.08c-0.02,0.03-0.05,0.05-0.08,0.08
	c-0.02,0.02-0.05,0.05-0.08,0.07c-0.43-0.3-0.67-0.77-0.98-1.17l0.02-0.08c0.03-0.05,0.06-0.08,0.11-0.11
	C60.66,93.3,60.74,93.28,60.74,93.28z"/>
<path class="st49" d="M55.45,84.86c0.08-0.09,0.15-0.18,0.23-0.27c0.25,0.35,0.51,0.69,0.76,1.04c-0.07,0.08-0.15,0.16-0.22,0.23
	C55.84,85.63,55.63,85.26,55.45,84.86z"/>
<path class="st50" d="M59.76,92.1c0.26,0.32,0.61,0.58,0.78,0.98c-0.02,0.11-0.09,0.18-0.2,0.2c-0.33-0.25-0.61-0.55-0.81-0.93
	c-0.05-0.09-0.04-0.17,0.03-0.25l0-0.01C59.63,92.04,59.7,92.04,59.76,92.1z"/>
<path class="st51" d="M60.34,93.29c0.07-0.07,0.13-0.14,0.2-0.2c0.06,0.06,0.13,0.13,0.19,0.19l-0.07,0l-0.05,0.04l-0.04,0.05
	c-0.05,0.03-0.06,0.07-0.04,0.13C60.47,93.42,60.41,93.35,60.34,93.29z"/>
<path class="st52" d="M59.22,91.91c0.1,0.03,0.15,0.1,0.14,0.2C59.28,92.07,59.22,92.01,59.22,91.91z"/>
<path class="st52" d="M59.56,92.11c-0.01,0.08-0.02,0.16-0.03,0.25c-0.1-0.05-0.17-0.13-0.17-0.25
	C59.43,92.11,59.5,92.11,59.56,92.11z"/>
<path class="st53" d="M65.26,82.89c-0.01-0.27,0.29-0.23,0.38-0.39l-0.01-0.01c0.14,0.13,0.35,0.22,0.38,0.44
	c0.32,0.61,0.88,1.02,1.24,1.6c0.13,0.2,0.26,0.27,0.33-0.07c0.07-0.33,0.36-0.19,0.56-0.18c0.59,0.04,1.09,0.37,1.62,0.59
	c0.04,0,0.08,0,0.12,0c0.08,0.02,0.15,0.06,0.22,0.11c0.16,0.37-0.11,0.41-0.36,0.46c-0.5-0.29-0.96-0.68-1.61-0.71
	c-0.19,0.37,0.27,0.82-0.21,1.25C66.92,85.07,66.32,83.78,65.26,82.89z"/>
<path class="st54" d="M69.74,85.46c-0.02-0.18,0.39-0.13,0.21-0.4c-0.07-0.07-0.14-0.14-0.21-0.21l0.02,0.03
	c-0.16-0.7-0.16-0.71,0.45-0.79c0.76-0.1,1.53-0.16,2.29,0.01c0.2,0.14,0.45,0.04,0.65,0.15c0.05-0.03,0.1-0.02,0.13,0.03
	c-0.01,0.37-0.24,0.28-0.46,0.22c-0.83-0.02-1.66-0.15-2.58,0.04c0.24,0.58,0.6,1.03,0.93,1.49c0.09,0.13,0.2,0.27,0.02,0.41
	c-0.12,0.09-0.24,0.04-0.35-0.05C70.47,86.08,70.1,85.77,69.74,85.46z"/>
<path class="st37" d="M66.01,82.94c-0.18-0.11-0.36-0.2-0.38-0.44c1.31,0,2.62,0,3.93,0c-0.21,0.29-0.52,0.2-0.81,0.21
	c-0.65,0.01-1.29,0-1.94,0.01C66.52,82.72,66.21,82.64,66.01,82.94z"/>
<path class="st55" d="M72.81,84.5c0.17-0.03,0.36-0.04,0.46-0.22c0.53,0.18,0.3,0.48,0.15,0.84C73.19,84.87,73.08,84.6,72.81,84.5z"
	/>
<path class="st56" d="M58.39,80.72c0.1,0.03,0.19,0.05,0.21,0.17c-0.02,0.09-0.03,0.18-0.05,0.26
	C58.36,81.06,58.2,80.95,58.39,80.72z"/>
<path class="st55" d="M73.14,84.25c-0.23,0.02-0.47,0.07-0.65-0.15C72.73,84.07,72.95,84.08,73.14,84.25z"/>
<path class="st52" d="M59.49,91.71c-0.1-0.03-0.13-0.1-0.13-0.19C59.41,91.58,59.45,91.65,59.49,91.71z"/>
<path class="st52" d="M59.76,92.1c-0.06,0-0.13,0-0.19,0c0-0.08,0.01-0.15,0.01-0.23C59.69,91.92,59.75,91.99,59.76,92.1z"/>
<path class="st57" d="M12.97,12.79c0.06,0.07,0.11,0.14,0.17,0.2C13.03,12.97,12.97,12.91,12.97,12.79z"/>
<path class="st57" d="M13.14,13c0.06,0.07,0.13,0.14,0.19,0.21c-0.06-0.01-0.12-0.02-0.18-0.04C13.15,13.11,13.15,13.05,13.14,13z"
	/>
<path class="st58" d="M69.67,39.46c-0.41-0.07-0.78,0.43-1.24,0.05c-0.14-0.12-0.43,0.06-0.57,0.25c-0.3,0.4-0.66,0.77-0.85,1.24
	c-0.23-0.04-0.23,0.07-0.16,0.23c-0.15,0.35-0.25,0.7-0.21,1.09c0.09,0.28,0.13,0.56-0.02,0.83c-0.38-0.21-0.65,0.17-0.98,0.2
	c-0.13-0.09-0.2-0.22-0.21-0.37c-0.03-0.41-0.3-0.7-0.55-0.99c0.01-0.21,0.43-0.3,0.17-0.58c0.03-0.03,0.07-0.06,0.1-0.09
	c0.14-0.04,0.27-0.02,0.37,0.08c0.1,0.11,0.23,0.44,0.33,0.02c0.07-0.31-0.08-0.65,0.05-0.96c0.11-0.25,0.27-0.47,0.46-0.66
	c0.07-0.05,0.16-0.09,0.24-0.11c0.56,0,0.86-0.57,1.39-0.64c0.67,0.04,1.32,0.16,1.96,0.38C69.87,39.51,69.78,39.52,69.67,39.46z"/>
<path class="st59" d="M65.04,41.4c-0.82-0.06-1.18-0.36-1.4-1.11c-0.06-0.19,0.05-0.56-0.38-0.47c-0.09,0.28-0.33,0.31-0.56,0.37
	L62.6,40.2l-0.09-0.03c-0.13-0.11-0.13-0.23-0.01-0.35c0.39-0.1,0.71-0.32,1.03-0.55c0.18,0,0.36-0.01,0.53-0.01
	c0.06,0.06,0.09,0.14,0.09,0.22c-0.02,0.21,0.01,0.41,0.06,0.61c0.15,0.23,0.75-0.01,0.54,0.47c-0.03-0.07,0.01-0.23,0.01-0.39
	c0.07-0.19,0.15-0.37,0.39-0.39c0.51,0.54,0.41,1.05-0.09,1.53L65.04,41.4z"/>
<path class="st60" d="M75.61,37.04c-0.06,0.08-0.13,0.16-0.19,0.24c-0.44,0.23-0.59-0.08-0.74-0.39c-0.03-0.08-0.05-0.17-0.07-0.25
	c-0.04-0.1-0.09-0.2-0.23-0.17c-0.13,0.07-0.21,0.21-0.35,0.27c-0.18,0.02-0.32-0.06-0.45-0.17c-0.09-0.09-0.17-0.19-0.21-0.31
	c-0.03-0.16,0-0.31,0.13-0.42c0.07-0.01,0.13-0.04,0.15-0.1c0.01-0.04-0.02-0.06-0.06-0.06c-0.01-0.07,0.01-0.13,0.08-0.16
	c0.43-0.29,0.8-0.78,1.42-0.43c-0.01,0.09-0.13,0.14-0.1,0.25c0.03,0.06,0.05,0.12,0.08,0.19c0.05,0.1,0.11,0.19,0.15,0.3
	c0.2,0.32,0.18,0.71,0.35,1.04C75.58,36.91,75.59,36.98,75.61,37.04z"/>
<path class="st61" d="M66.05,40.37c-0.03,0.32-0.09,0.65,0.06,0.95c0.13,0.26-0.01,0.31-0.19,0.42c-0.12,0.07,0.09,0.35-0.15,0.37
	c-0.18,0.02-0.26-0.17-0.3-0.32c-0.03-0.12-0.03-0.25-0.05-0.38c-0.21-0.6,0.09-1.26-0.21-1.86c-0.07-0.14-0.15-0.27-0.28-0.37
	c-0.06-0.05-0.1-0.11-0.12-0.19c0.39-0.21,0.81-0.11,1.22-0.09c0.06,0.06,0.1,0.14,0.11,0.23C66.04,39.53,66.31,39.97,66.05,40.37z"
	/>
<path class="st62" d="M73.66,35.51c0,0.07,0,0.13,0.01,0.2c0.07,0.04,0.09,0.09,0.06,0.13c-0.02,0.04-0.05,0.06-0.07,0.06
	c-0.16,0.09-0.19,0.24-0.19,0.4c0.12,0.16,0.15,0.33,0.08,0.52c-0.47,0.18-0.19,0.57-0.24,0.87c0,0.19-0.01,0.37-0.06,0.55
	c-0.03,0.09-0.08,0.17-0.15,0.23c-0.68-0.16-0.39-0.82-0.62-1.21c-0.02-0.08-0.05-0.16-0.07-0.23c0.01-0.15,0.06-0.3,0.06-0.45
	c0.01-0.11,0.01-0.21,0-0.32C72.75,35.83,73.25,35.73,73.66,35.51z"/>
<path class="st61" d="M64.03,39.5c0.01-0.08,0.02-0.17,0.03-0.25c0.22-0.16,0.47-0.26,0.75-0.27c0.03,0.04,0.06,0.08,0.09,0.12
	c-0.02,0.17-0.12,0.29-0.23,0.41c-0.04,0.07-0.18,0.06-0.17,0.19c0.05,0.04,0.09,0.08,0.14,0.11c0.08,0.05,0.17,0.1,0.24,0.16
	c0.04,0.06,0.04,0.12,0,0.18c-0.02,0.21-0.04,0.43-0.06,0.66c-0.23-0.12-0.19-1.1-0.63-0.13c-0.19-0.27-0.08-0.5-0.13-0.71
	C63.94,39.82,63.96,39.66,64.03,39.5z"/>
<path class="st63" d="M67.99,39.04c-0.28,0.25-0.58,0.49-0.85,0.75c-0.18,0.17-0.34,0.11-0.52,0.03c-0.03-0.03-0.06-0.05-0.09-0.08
	c0-0.04,0-0.08-0.01-0.12c0.02-0.12,0.06-0.23,0.1-0.34c0.07-0.2,0.19-0.35,0.41-0.39C67.37,38.86,67.69,38.84,67.99,39.04z"/>
<path class="st64" d="M75.57,36.85c-0.44-0.25-0.39-0.74-0.55-1.13c-0.05-0.07-0.1-0.15-0.15-0.22c-0.02-0.06-0.03-0.13-0.04-0.19
	c0.13-0.11,0.26-0.12,0.39,0.01l0.01,0.01c0.13,0.09,0.08,0.27,0.18,0.37C75.61,36.06,75.63,36.45,75.57,36.85z"/>
<path class="st65" d="M69.67,39.46c0.09-0.01,0.18-0.03,0.27-0.04c0.12-0.01,0.24-0.02,0.36-0.03c-0.18,0.39-0.45,0.71-0.82,1.01
	C69.31,39.98,69.67,39.76,69.67,39.46z"/>
<path class="st66" d="M67.04,38.89c-0.1,0.16-0.27,0.29-0.27,0.5c-0.01,0.1-0.1,0.16-0.14,0.25l-0.02,0
	c-0.52-0.11-0.39-0.42-0.22-0.74C66.61,38.89,66.82,38.89,67.04,38.89z"/>
<path class="st67" d="M66.4,38.9c0.08,0.24-0.08,0.56,0.22,0.74c0,0.06,0,0.12,0,0.19c-0.07,0-0.14,0-0.21,0.01
	c-0.59-0.03-0.24-0.51-0.38-0.76c0-0.05,0-0.11-0.01-0.16C66.15,38.9,66.27,38.9,66.4,38.9z"/>
<path class="st68" d="M72.47,36.26c0.07,0.07,0.13,0.13,0.2,0.2c-0.09,0.13-0.05,0.31-0.17,0.43c-0.02,0.06-0.03,0.12-0.02,0.19
	c-0.04,0.06-0.09,0.08-0.16,0.03c-0.04-0.14-0.04-0.3-0.17-0.4C72.17,36.5,72.31,36.38,72.47,36.26z"/>
<path class="st69" d="M75.22,35.32c-0.13,0-0.26,0-0.39-0.01c-0.14-0.32,0.17-0.15,0.25-0.23C75.17,35.14,75.22,35.21,75.22,35.32z"
	/>
<path class="st68" d="M71.91,37.09c0.01,0.18-0.06,0.3-0.22,0.36C71.69,37.29,71.76,37.17,71.91,37.09z"/>
<path class="st69" d="M75.4,35.7c-0.14-0.08-0.19-0.22-0.18-0.37C75.38,35.41,75.41,35.55,75.4,35.7z"/>
<path class="st68" d="M72.08,36.84c0.01,0.12-0.05,0.19-0.16,0.24C71.91,36.96,71.96,36.88,72.08,36.84z"/>
<path class="st70" d="M78.14,55.29c-0.14-0.04-0.41-0.13-0.33,0.12c0.17,0.5,0.1,1.03,0.27,1.53c0.15,0.44,0.11,0.91,0.06,1.35
	c-0.09,0.68-0.59,0.85-1.09,0.39c-0.16-0.15-0.26-0.4-0.51-0.41c-0.69-0.03-0.75-0.48-0.73-1.02c0.02-0.39,0.07-0.79-0.01-1.17
	c-0.15-0.76,0.09-1.64-0.81-2.2c-0.33-0.2-0.37-0.86-0.54-1.32c0.05-0.07,0.11-0.09,0.19-0.07c0.07,0.03,0.13,0.07,0.19,0.12
	c0.05,0.05,0.1,0.12,0.14,0.18c0.06,0.09,0.11,0.19,0.16,0.29c0.05,0.06,0.09,0.11,0.14,0.16c0.57,0,0.13-0.34,0.17-0.51
	c-0.09-0.21-0.18-0.43-0.2-0.66c0.01-0.39,0.1-0.71,0.58-0.74c0.49,0.29,0.53,0.86,0.79,1.3c0.17,0.33,0.3,0.69,0.1,1.02
	c-0.78,1.27-0.39,2.61-0.31,3.94c0.12,0.16,0.32,0.2,0.49,0.29c0.59,0.32,0.63-0.03,0.63-0.49c0-0.71-0.28-1.39-0.19-2.1
	c0.04-0.34-0.13-0.79,0.41-0.93C77.9,54.64,78.12,54.92,78.14,55.29z"/>
<path class="st71" d="M77.74,54.34c-0.27,0.69-0.19,1.4-0.06,2.09c0.11,0.58,0.11,1.16,0.11,1.75c0,0.35-0.28,0.52-0.49,0.22
	c-0.29-0.42-0.8-0.24-1.09-0.55c-0.05-0.05-0.07-0.11-0.05-0.16s0.03-0.08,0.05-0.08c0.04-0.02,0.09-0.03,0.13-0.05
	c0.05,0,0.09-0.01,0.14-0.02c0.51,0.04,0.66-0.25,0.67-0.7c0-0.47,0.01-0.95,0-1.42c-0.01-0.12-0.03-0.25-0.05-0.37
	c-0.18-0.41-0.7-0.21-0.93-0.52c-0.01-0.03-0.03-0.08-0.02-0.09c0.58-0.5,0.58-1.2,0.66-1.86C77.22,53.09,77.52,53.69,77.74,54.34z"
	/>
<path class="st72" d="M76.79,52.56c0.01,0.32-0.01,0.64,0.1,0.96c0.14,0.39,0.16,0.72-0.43,0.66c-0.22-0.02-0.23,0.18-0.24,0.34
	c0.48,0.79,0.17,1.66,0.24,2.5c0,0.12-0.03,0.23-0.06,0.33c-0.05,0.1-0.11,0.2-0.19,0.28c0,0.07-0.01,0.14-0.01,0.21
	c-0.14-0.11-0.2-0.25-0.2-0.42c0-0.97-0.01-1.93-0.01-2.9c0-0.23-0.02-0.51,0.19-0.62c0.65-0.38,0.34-0.87,0.22-1.35
	c-0.14-0.56-0.78-1.25,0.39-1.46c0.27,0.06,0.38,0.2,0.2,0.46c-0.08,0.07-0.15,0.15-0.23,0.22C76.68,52.03,76.63,52.3,76.79,52.56
	L76.79,52.56z"/>
<path class="st73" d="M76.99,51.55c0-0.15-0.04-0.29-0.18-0.38c-0.32-0.09-0.42-0.35-0.49-0.63c0.01-0.25,0.07-0.47,0.32-0.59
	c0.12,0.02,0.24,0.03,0.36,0.05c0.06-0.07,0.12-0.07,0.18,0.01c0,0.14-0.01,0.27-0.01,0.41l-0.06,0.07l0.05,0.07
	c0.02,0.08,0.04,0.15,0.07,0.23C77.05,51.01,77.32,51.37,76.99,51.55z"/>
<path class="st71" d="M76.79,52.55c-0.27-0.25-0.29-0.51-0.04-0.78C76.77,52.03,76.78,52.29,76.79,52.55z"/>
<path class="st74" d="M57.06,46.25c0.16-0.52,0.35-1.03,0.47-1.56c0.2-0.9,0.58-1.69,1.28-2.3c0.06-0.01,0.11-0.01,0.17-0.02
	c0.48,0.3,0.1,0.64-0.02,0.87c-0.44,0.88-0.7,1.73-0.21,2.7c0.19,0.38,0.12,0.84-0.29,1.14c-0.05,0.09-0.33-0.15-0.24,0.17
	c0.1,0.33,0.39,0.61,0.26,0.99c-0.53,0.29-0.92,0.77-1.44,1.08c-0.09,0.02-0.18,0.01-0.28-0.01c-0.26-0.1-0.31-0.32-0.31-0.57
	c0.01-0.09,0.03-0.17,0.06-0.26c0.13-0.2,0.29-0.39,0.29-0.66c0.01-0.16,0.01-0.32,0.03-0.48c0.01-0.08,0.03-0.16,0.06-0.23
	c0.05-0.15,0.15-0.28,0.22-0.42C57.13,46.54,57.12,46.39,57.06,46.25L57.06,46.25z"/>
<path class="st75" d="M58.18,47.08c0.5-0.53,0.56-0.76,0.25-1.33c-0.37-0.68-0.38-1.34,0.01-2c0.26-0.43,0.46-0.88,0.54-1.39
	c0.08-0.19,0.26-0.27,0.41-0.38c0.16-0.1,0.32-0.04,0.47,0.03c0.07,0.05,0.12,0.11,0.15,0.19c0,0.23-0.13,0.37-0.33,0.45
	c-0.11,0-0.22,0.01-0.3,0.09c0,0.03-0.13,0.02-0.02,0.08c-0.02-0.05,0-0.09,0.07-0.11c0.07-0.02,0.14-0.02,0.21,0
	c0.18,0.07,0.33,0.16,0.36,0.36c-0.03,0.18,0.17-0.04,0.18,0.09c0.33,0.51,0.19,1.09,0.28,1.63c-0.07,0.38,0.03,0.76-0.03,1.13
	c-0.48,0.16-0.48,0.16-0.82-0.59c-0.11-0.26-0.14-0.55-0.31-0.87c-0.38,0.74,0.11,1.44-0.05,2.13c-0.28,0.13-0.31,0.45-0.49,0.65
	C58.48,47.59,58.24,47.58,58.18,47.08z"/>
<path class="st76" d="M57.8,35.52c-0.2,0.22,0.04,0.28,0.15,0.35c0.29,0.18,0.59,0.34,0.91,0.52c-0.34,0.26-0.6-0.06-0.94,0.01
	c0.08,0.56,0.66,0.89,0.66,1.46c-0.18,0.14-0.44,0.1-0.61,0.26c-0.61-0.08-0.55-0.58-0.62-0.99c-0.02-0.09,0-0.21-0.16-0.17
	c-0.07,0.01-0.14,0-0.2-0.01c-0.06-0.03-0.12-0.06-0.18-0.11c-0.03-0.02-0.05-0.04-0.08-0.06c-0.06-0.04-0.11-0.09-0.15-0.14
	c-0.05-0.05-0.09-0.1-0.14-0.15c-0.01-0.13-0.01-0.26-0.02-0.39c0.14-0.13,0.12-0.32,0.17-0.48c0-0.05,0.03-0.09,0.08-0.11
	c0.08-0.05,0.15-0.05,0.22,0.01c0.4,0.29,0.28-0.43,0.6-0.31C57.69,35.22,57.88,35.24,57.8,35.52z"/>
<path class="st77" d="M56.87,35.53c-0.06-0.01-0.13-0.01-0.19-0.02c0.12-0.14,0.23-0.27,0.35-0.41c0.31-0.14,0.63-0.09,0.95-0.03
	c0.12,0.03,0.24,0.06,0.36,0.09c0.68,0.51,1.51,0.84,1.96,1.62c0.04,0.31,0.31,0.55,0.26,0.88c-0.06-0.02-0.14-0.03-0.17-0.07
	c-0.65-0.96-1.44-1.73-2.58-2.06c-0.11-0.18-0.27-0.2-0.46-0.17C57.19,35.43,57.07,35.58,56.87,35.53z"/>
<path class="st78" d="M57.02,36.88c0.06,0,0.13,0,0.19-0.01c0.07-0.05,0.13-0.06,0.2,0c0.18,0.12,0.2,0.3,0.19,0.49
	c-0.02,0.31,0.1,0.54,0.35,0.71c0.27,0.26,0.07,0.56,0.07,0.84c-0.04,0.15-0.11,0.29-0.23,0.39c-0.21,0.11-0.4,0.07-0.57-0.08
	c-0.04-0.04-0.06-0.1-0.06-0.16c0.33-0.6-0.27-0.97-0.35-1.46c-0.05-0.29-0.13-0.18-0.24-0.05c-0.22-0.33-0.15-0.7-0.13-1.06
	c0.06,0,0.12,0,0.18,0c0.05,0.08,0.13,0.13,0.2,0.19l0,0C56.89,36.75,56.95,36.82,57.02,36.88z"/>
<path class="st79" d="M58.79,39.21c0.22,0.28,0.46,0.54,0.65,0.84c0.17,0.27-0.07,0.32-0.26,0.36l0.01-0.01
	c0.13,0.26,0.26,0.52,0.39,0.78c-0.06,0.09-0.13,0.09-0.21,0.02c-0.28-0.1-0.57-0.17-0.79-0.39c-0.09-0.32-0.16-0.65-0.27-0.97
	c-0.01-0.09-0.01-0.18,0.01-0.27C58.41,39.38,58.47,39.13,58.79,39.21z"/>
<path class="st80" d="M56.58,37.55c0.08-0.08,0.01-0.43,0.23-0.24c0.29,0.25,0.3,0.73,0.71,0.96c0.07,0.04-0.05,0.59-0.35,0.79
	C56.84,38.61,56.69,38.09,56.58,37.55z"/>
<path class="st81" d="M58.39,39.82c0.3,0.29,0.49,0.59,0.18,0.99c-0.45-0.21-0.73-0.57-0.97-0.99
	C57.79,39.42,57.81,39.42,58.39,39.82z"/>
<path class="st82" d="M59.36,41.2c0.07,0,0.14-0.01,0.21-0.02c0.2,0.26,0.37,0.54,0.78,0.31c0.16-0.09,0.37-0.09,0.56-0.13
	c0.03,0.03,0.06,0.06,0.1,0.09c0.05,0.13,0.04,0.25-0.04,0.37c-0.16,0.14-0.37,0.2-0.56,0.3c-0.15,0.07-0.3,0.17-0.47,0.06l0.01,0
	c-0.11-0.16-0.3-0.24-0.4-0.41C59.53,41.56,59.49,41.37,59.36,41.2z"/>
<path class="st83" d="M58.39,39.82c-0.12,0.15-0.22,0.06-0.32-0.02c-0.16-0.14-0.32-0.21-0.47,0.02c-0.18-0.17-0.31-0.36-0.38-0.6
	c0.2,0,0.4,0,0.59-0.01c0.34-0.07,0.49,0.12,0.56,0.41C58.38,39.69,58.38,39.76,58.39,39.82z"/>
<path class="st27" d="M57.98,35.07c-0.32,0.01-0.63,0.02-0.95,0.03C57.34,34.83,57.65,34.85,57.98,35.07z"/>
<path class="st84" d="M59.55,41.77c0.26,0.01,0.41,0.13,0.4,0.41c-0.21,0.01-0.38-0.11-0.56-0.19
	C59.44,41.92,59.5,41.84,59.55,41.77z"/>
<path class="st77" d="M56.59,35.62c0.02,0.19,0.02,0.36-0.17,0.48C56.4,35.91,56.44,35.75,56.59,35.62z"/>
<path class="st85" d="M71.11,42.15c-0.18-0.26-0.36-0.52-0.54-0.78c0.12-0.13,0.28-0.18,0.45-0.21c0.33-0.04,0.59-0.26,0.9-0.35
	c0.06-0.02,0.11-0.04,0.17-0.06c0.51,0.42,0.91-0.13,1.37-0.16c0.07,0.36,0.53,0.24,0.65,0.54c-0.46,0.03-0.9,0.13-1.22,0.5
	c0.03,0.04,0.06,0.11,0.1,0.12c1.6,0.38,2.17,1.6,2.11,3.05c-0.04,0.89-0.11,1.73-0.57,2.52c-0.47,0.81-1.02,1.06-1.94,0.83
	c-0.34-0.09-0.68-0.19-1.03-0.28c-0.2-0.18-0.2-0.37-0.05-0.58c0.45,0.17,0.9,0.38,1.37,0.49c0.6,0.15,0.86-0.02,1.21-0.54
	c0.73-1.08,0.7-2.28,0.52-3.47c-0.12-0.78-0.7-1.3-1.48-1.52c-0.06-0.02-0.16,0.08-0.24,0.12c-0.51,0.06-0.99-0.41-1.52-0.12
	C71.25,42.25,71.18,42.22,71.11,42.15z"/>
<path class="st86" d="M74.82,36.72c0.06,0.33,0.28,0.5,0.6,0.56c-0.11,0.87-0.46,1.63-0.98,2.33c-0.27,0.08-0.26-0.2-0.39-0.29
	c-0.11-0.01-0.21,0.02-0.31,0.02c-0.08,0-0.15-0.02-0.22-0.06c-0.29-0.31-0.01-0.52,0.12-0.76c0.04-0.07,0.07-0.15,0.11-0.22
	c0.14-0.28,0.05-0.68,0.39-0.87c0.26,0.07,0.31-0.08,0.31-0.3C74.51,36.94,74.47,36.65,74.82,36.72z"/>
<path class="st87" d="M73.45,40.6c-0.3,0.39-0.68,0.65-1.16,0.74c-0.14-0.18,0.09-0.47-0.2-0.58c0.01-0.2-0.04-0.42,0.17-0.56
	c0.36,0.45,0.47-0.27,0.75-0.16c0.17-0.06,0.33-0.12,0.51-0.14c0.18,0.02,0.38,0.01,0.33,0.29C73.71,40.33,73.58,40.46,73.45,40.6z"
	/>
<path class="st88" d="M73.84,40.19c-0.07-0.18-0.21-0.16-0.36-0.14c-0.17-0.32-0.29,0.04-0.44,0.03c-0.2,0.01-0.33-0.08-0.4-0.28
	c0.07-0.13,0.15-0.25,0.22-0.38c0.18-0.41,0.54-0.06,0.79-0.18c0.06,0,0.12-0.01,0.18-0.03c0.08-0.05,0.15-0.1,0.21-0.18
	c0.19-0.09,0.4-0.18,0.32,0.18c-0.03,0.15-0.18,0.29,0.06,0.39C74.3,39.87,74.08,40.04,73.84,40.19z"/>
<path class="st89" d="M53.5,47.45c-0.08-0.08-0.15-0.16-0.23-0.24c0.28-0.1,0.57-0.2,0.85-0.31c0.4,0.12,0.74-0.13,1.11-0.2
	c0.15,0,0.3,0,0.45,0c0.11,0.07,0.24,0.06,0.35,0.09c0.08,0.04,0.14,0.09,0.2,0.16c0.15,0.3,0.14,0.52-0.26,0.57
	c-0.54-0.06-1.08-0.02-1.6,0.14C54.05,47.71,53.71,47.85,53.5,47.45z"/>
<path class="st90" d="M57.2,46.65c0,0.16-0.04,0.31-0.18,0.41c-0.15,0.15-0.32,0.18-0.52,0.12c-0.16-0.09-0.3-0.22-0.46-0.32h0
	c-0.07-0.04-0.09-0.08-0.06-0.11c0.03-0.03,0.05-0.04,0.08-0.04c0.32-0.02,0.64-0.04,0.95-0.05C57.07,46.58,57.13,46.58,57.2,46.65z
	"/>
<path class="st91" d="M55.22,46.71c-0.33,0.26-0.66,0.56-1.11,0.2C54.47,46.76,54.83,46.61,55.22,46.71z"/>
<path class="st15" d="M57.2,46.65l-0.09,0.02l-0.09-0.01c0.01-0.14,0.02-0.28,0.04-0.41C57.22,46.34,57.22,46.49,57.2,46.65z"/>
<path class="st91" d="M56.06,46.71c0,0.05-0.01,0.1-0.02,0.15c-0.15,0.01-0.28-0.01-0.36-0.16C55.81,46.71,55.93,46.71,56.06,46.71z
	"/>
<path class="st92" d="M62.5,39.82c0,0.12,0.01,0.23,0.01,0.35c-0.18-0.07-0.19-0.23-0.18-0.39C62.4,39.75,62.46,39.76,62.5,39.82z"
	/>
<path class="st93" d="M77.18,50.01l-0.09-0.03L77,50c-0.02-0.42-0.16-0.84-0.03-1.27c-0.09-0.22-0.01-0.47-0.15-0.68
	c-0.01-0.12-0.02-0.23-0.04-0.35c-0.16-0.25,0.01-0.57-0.16-0.82c-0.02-0.11-0.03-0.22-0.05-0.32c-0.06-0.15-0.06-0.31-0.13-0.46
	c-0.03-0.11-0.05-0.21-0.08-0.32c0.04-0.14,0.02-0.32,0.2-0.4c0.04,0.19,0.02,0.4,0.21,0.54c0.15,0.92,0.28,1.84,0.51,2.74
	C77.4,49.1,77.54,49.58,77.18,50.01z"/>
<path class="st94" d="M13.15,55.5c0.36,0.18,0.18,0.51,0.19,0.77c0.01,0.52-0.02,1.04-0.04,1.56c-0.33-0.63-0.08-1.31-0.16-1.96
	C13.15,55.75,13.15,55.63,13.15,55.5z"/>
<path class="st35" d="M14.73,59.56c0.08,0.13,0.17,0.26,0.25,0.4c-0.09,0.01-0.17,0.02-0.26,0.03
	C14.73,59.85,14.73,59.7,14.73,59.56z"/>
<path class="st95" d="M16.88,62.88c0.52,0.18,1.12-0.17,1.6,0.24c-0.53,0-1.07-0.01-1.6-0.01C16.88,63.03,16.88,62.95,16.88,62.88z"
	/>
<path class="st36" d="M16.09,60.01c0.13-0.01,0.19,0.04,0.16,0.18C16.2,60.12,16.14,60.07,16.09,60.01z"/>
<path class="st57" d="M77.16,50.56c-0.01-0.03-0.03-0.06-0.04-0.09c0-0.01,0.03-0.03,0.04-0.05C77.17,50.47,77.17,50.51,77.16,50.56
	z"/>
<path class="st96" d="M52.12,47.65c-0.07-0.01-0.15-0.02-0.22-0.03c0.06-0.09,0.13-0.13,0.24-0.12
	C52.13,47.56,52.13,47.6,52.12,47.65L52.12,47.65z"/>
<path class="st97" d="M60.34,54.9c0.61,1.02,1.53,1.76,2.35,2.59c0.25,0.25,0.48,0.53,0.69,0.82c0.13,0.17,0.11,0.38-0.07,0.52
	c-0.15,0.12-0.32,0.06-0.45-0.04c-0.47-0.35-0.92-0.71-1.3-1.17c-0.12-0.15-0.28-0.26-0.43-0.39c-0.66-0.37-0.95-1.06-1.43-1.58
	c-0.06-0.16-0.12-0.32-0.18-0.48c-0.04-0.07-0.06-0.15-0.08-0.24c0.02-0.18,0.11-0.3,0.29-0.35c0.08-0.01,0.16,0,0.24,0.02
	c0.07,0.03,0.14,0.07,0.2,0.12C60.23,54.79,60.29,54.84,60.34,54.9z"/>
<path class="st98" d="M59.36,56.66c0.06,0.22,0.13,0.43,0.17,0.65c0.03,0.19,0.03,0.4-0.21,0.48c-0.22,0.07-0.38-0.06-0.48-0.23
	c-0.18-0.31-0.36-0.61-0.44-0.97c-0.27-1.16-0.55-2.31-0.83-3.47c-0.06-0.25-0.22-0.53,0.11-0.67c0.3-0.13,0.34,0.21,0.49,0.36
	c0.09,0.09,0.15,0.21,0.22,0.32c0.41,0.69,0.63,1.43,0.65,2.22C59.06,55.82,59.15,56.25,59.36,56.66z"/>
<path class="st99" d="M67.97,60.22c-0.06-0.01-0.22-0.01-0.38-0.05c-0.16-0.04-0.3-0.14-0.32-0.32c-0.03-0.19,0.08-0.35,0.24-0.37
	c0.97-0.15,1.4-0.99,2.03-1.57c0.14-0.13,0.26-0.29,0.38-0.44c0.17-0.2,0.37-0.28,0.59-0.12c0.18,0.13,0.19,0.33,0.09,0.52
	c-0.12,0.23-0.2,0.49-0.37,0.68c-0.43,0.48-0.9,0.94-1.35,1.4C68.67,60.18,68.38,60.23,67.97,60.22z"/>
<path class="st100" d="M64,60.53c-0.01,0.28-0.18,0.43-0.44,0.4c-0.19-0.02-0.38-0.11-0.54-0.21c-0.87-0.57-1.74-1.15-2.54-1.82
	c-0.18-0.15-0.42-0.29-0.25-0.54c0.15-0.22,0.41-0.16,0.62-0.06c0.32,0.15,0.64,0.31,0.95,0.5c0.58,0.36,1.15,0.74,1.71,1.13
	C63.73,60.08,63.94,60.26,64,60.53z"/>
<path class="st101" d="M62.54,54.49c0.85,0.73,1.54,1.65,2.5,2.26c0.23,0.15,0.52,0.42,0.32,0.72c-0.24,0.35-0.6,0.14-0.86-0.03
	c-0.59-0.38-1.19-0.77-1.62-1.35c-0.25-0.46-0.69-0.76-0.99-1.18l0,0c-0.1-0.32-0.48-0.73-0.15-0.95
	C62.13,53.71,62.26,54.32,62.54,54.49z"/>
<path class="st39" d="M54.11,54.14c-0.28,0.59-0.41,1.22-0.57,1.84c-0.06,0.25-0.16,0.49-0.28,0.72c-0.15,0.3-0.41,0.4-0.74,0.31
	c-0.3-0.08-0.41-0.31-0.4-0.59c0.02-0.79,0.26-1.53,0.55-2.24c0.2-0.5,0.53-0.93,0.32-1.55c-0.13-0.39,0.22-0.81,0.46-1.14
	c0.5-0.69,1.1-1.3,1.98-1.5c0.03,0.03,0.06,0.06,0.08,0.1c0.02,0.08,0.02,0.17-0.01,0.25c-0.14,0.22-0.42,0.29-0.56,0.5
	c-0.11,0.16-0.19,0.36-0.38,0.44c-0.77,0.33-1.07,0.9-0.96,1.72c0.04,0.27-0.06,0.51-0.17,0.75c-0.37,0.71-0.7,1.43-0.64,2.48
	c0.41-0.82,0.36-1.6,0.92-2.11c0.08-0.05,0.17-0.08,0.26-0.07C54.04,54.08,54.07,54.11,54.11,54.14z"/>
<path class="st102" d="M59.18,60.74c-0.01-0.06-0.02-0.11-0.01-0.17c-0.19-0.39-0.82-0.78-0.5-1.14c0.36-0.41,0.61,0.4,1.02,0.45
	c0.06,0.01,0.13,0.03,0.19,0.04c0.51,0.34,1.03,0.67,1.64,0.81c0.29,0.07,0.57,0.22,0.51,0.59c-0.06,0.37-0.39,0.41-0.68,0.4
	C60.49,61.71,59.84,61.21,59.18,60.74z"/>
<path class="st103" d="M73.28,58.62c-0.4,0.79-0.96,1.46-1.6,2.07c-0.51,0.5-1.15,0.71-1.83,0.79c-0.37,0.04-0.52-0.23-0.37-0.56
	c0.09-0.19,0.25-0.29,0.39-0.42c0.64-0.59,1.3-1.17,1.84-1.88c0.08-0.07,0.16-0.07,0.24,0c0.19,0.47-0.19,0.71-0.43,1
	c-0.31,0.37-0.73,0.63-1.02,1.15c1.04-0.36,1.49-1.21,2.08-1.92c0.2-0.25,0.24-0.72,0.75-0.61C73.37,58.37,73.38,58.5,73.28,58.62z"
	/>
<path class="st104" d="M57.57,55.12c-0.2,0.45-0.09,0.95-0.17,1.42c-0.08,0.47-0.34,0.59-0.76,0.4c-0.12-0.05-0.2-0.16-0.32-0.22
	c-0.86-0.44-0.94-0.85-0.23-1.45c0.21-0.17,0.32-0.4,0.48-0.59c0.17-0.2,0.35-0.44,0.64-0.31C57.52,54.5,57.57,54.8,57.57,55.12z"/>
<path class="st105" d="M74.52,62.62c-0.19-0.03-0.38-0.08-0.45-0.3c-0.06-0.17,0-0.35,0.15-0.42c0.55-0.28,0.85-0.76,1.14-1.27
	c0.1-0.18,0.28-0.27,0.5-0.22c0.21,0.05,0.32,0.21,0.34,0.42C76.23,61.5,75.17,62.64,74.52,62.62z"/>
<path class="st106" d="M73.28,58.62c0-0.14-0.01-0.28-0.01-0.42c-0.22-0.17-0.16-0.47-0.31-0.68c-0.39,0.33-0.31,1.08-1.01,1.12
	c-0.08,0-0.15-0.01-0.23-0.01c0.3-0.46,0.58-0.9,0.62-1.49c0.04-0.54,0.46-0.85,0.75-0.6c0.59,0.51,0.82-0.01,1.17-0.25
	c0.07,0.07,0.13,0.17,0.1,0.25c-0.2,0.51,0.02,0.62,0.48,0.53c-0.03,0.48-0.4,0.92-0.72,0.88C73.47,57.84,73.55,58.4,73.28,58.62z"
	/>
<path class="st39" d="M55.63,49.43c-0.07-0.1-0.15-0.21-0.22-0.31c-0.19-0.26-0.42-0.26-0.48,0.05c-0.16,0.87-1.07,0.84-1.54,1.32
	c-0.15,0.16-0.45-0.04-0.58-0.21c-0.33-0.42-0.46-0.05-0.65,0.13l-0.06-0.06c-0.26-0.46-0.05-0.86,0.13-1.27
	c0.34-0.27,0.63-0.26,0.85,0.16c0.09,0.17,0.04,0.49,0.39,0.43c0.4-0.27,0.91-0.37,1.07-0.98c0.14-0.53,0.59-0.3,0.95-0.16
	c0.26,0.21,0.39,0.46,0.26,0.79C55.7,49.36,55.66,49.4,55.63,49.43z"/>
<path class="st107" d="M70.15,56.46c-0.7,0.01-1.14-0.32-1.2-0.84c-0.07-0.77,0.25-1.02,0.94-0.68c0.33,0.17,0.61,0.11,0.93,0.02
	c0.38-0.1,0.73,0.02,0.85,0.43c0.11,0.38-0.16,0.6-0.49,0.74C70.83,56.28,70.47,56.42,70.15,56.46z"/>
<path class="st108" d="M59.18,60.74c0.45,0.11,0.83,0.35,1.21,0.59c0.36,0.23,0.73,0.23,1.12,0.22c0.17-0.01,0.33-0.06,0.37-0.25
	c0.04-0.18-0.08-0.31-0.24-0.37c-0.41-0.18-0.84-0.33-1.25-0.53c-0.23-0.11-0.44-0.27-0.65-0.41c-0.06-0.04-0.08-0.08-0.06-0.13
	c0.02-0.04,0.04-0.06,0.06-0.06c0.74,0.22,1.33,0.78,2.12,0.89c0.23,0.03,0.43,0.3,0.41,0.6c-0.01,0.26-0.2,0.4-0.42,0.48
	c-0.18,0.07-0.39,0.18-0.55,0.14C60.51,61.71,59.65,61.58,59.18,60.74z"/>
<path class="st109" d="M59.36,56.66c-0.06-0.07-0.17-0.13-0.18-0.21c-0.25-1.11-0.66-2.18-0.79-3.32c0.23,0.13,0.47,0.17,0.73,0.22
	c0.38,0.07,0.59,0.36,0.68,0.73c-0.03,0.03-0.06,0.05-0.09,0.08c-0.52,0.11-0.06,0.53-0.24,0.76c0,0.09-0.04,0.16-0.13,0.2
	c-0.27,0.27-0.16,0.59-0.08,0.89C59.32,56.23,59.38,56.44,59.36,56.66z"/>
<path class="st110" d="M63.07,52.55c-0.31-0.57-0.4-1.22-0.5-1.83c-0.13-0.84-0.85-1.25-1.19-1.94c-0.14-0.28-0.66-0.09-1-0.17
	c-0.04-0.02-0.08-0.03-0.11-0.05c0.01-0.09,0.04-0.16,0.11-0.21c0.18-0.1,0.38-0.15,0.58-0.2c0.08-0.01,0.17,0,0.25,0.01
	c0.25,0.06,0.5,0.08,0.74,0.18c0.16,0.08,0.31,0.18,0.39,0.36c-0.04,0.61,0.5,0.97,0.63,1.51c0.19,0.78,0.55,1.53,0.36,2.37
	C63.24,52.62,63.15,52.62,63.07,52.55z"/>
<path class="st107" d="M67.87,54.96c0.25-0.02,0.35,0.06,0.43,0.16c0.33,0.37,0.45,0.86,0.58,1.32c0.07,0.25-0.17,0.42-0.45,0.32
	c-0.3-0.11-0.59-0.27-0.88-0.42c-0.3-0.15-0.64-0.3-0.5-0.71C67.2,55.24,67.68,55.21,67.87,54.96z"/>
<path class="st111" d="M74.83,57.05c-0.34,0.08-0.5,0.72-0.85,0.45c-0.34-0.26,0.14-0.62,0.22-0.94c0.02-0.09,0.03-0.19,0.05-0.28
	l0,0c0.12-0.13,0.07-0.31,0.12-0.46c0.06-0.19,0.16-0.37,0.41-0.33c0.22,0.04,0.34,0.21,0.34,0.42c0,0.25,0.09,0.52-0.09,0.76
	C74.96,56.79,74.9,56.92,74.83,57.05z"/>
<path class="st106" d="M74.25,55.29c-0.15,0.12-0.3,0.23-0.45,0.35c-0.41,0.3-0.82,0.32-1,0.02c-0.23-0.39-0.16-0.73,0.27-0.95
	c0.29,0.74,0.53,0.52,0.79-0.09c-0.31-0.18-0.53,0.25-0.79,0.09c0.04-0.15,0.06-0.31,0.13-0.45c0.15-0.31,0.39-0.52,0.75-0.45
	c0.32,0.06,0.52,0.51,0.44,0.94C74.37,54.93,74.3,55.11,74.25,55.29L74.25,55.29z"/>
<path class="st112" d="M56.98,49.2c0.15-0.27,0.51-0.33,0.63-0.67c0.12-0.35,0.61,0.07,0.78-0.29c0.2-0.4,0.54-0.45,0.93-0.38
	c0.1,0.03,0.19,0.07,0.27,0.14c0.08,0.14,0.1,0.28,0.04,0.43c-0.31,0.49-0.89,0.17-1.27,0.44c-0.12-0.05,0.03,0.04-0.09-0.01
	c-0.08-0.03-0.15-0.1-0.24-0.12c0.06,0.03,0.13,0.06,0.18,0.11c0.03,0.33-0.31,0.21-0.43,0.35l0,0c-0.06,0.08-0.13,0.15-0.23,0.19
	c-0.06,0-0.12,0.03-0.17,0.07c-0.04-0.01-0.08-0.03-0.12-0.04C57.15,49.39,57.04,49.32,56.98,49.2z"/>
<path class="st113" d="M59.75,59.8c0,0.06,0,0.13,0,0.19c-0.43,0.04-0.57-0.49-0.98-0.53c-0.14,0.48,0.46,0.68,0.4,1.11
	c-0.52-0.29-0.72-0.8-0.93-1.31c-0.05-0.12-0.04-0.26,0.06-0.36c0.14-0.13,0.31-0.12,0.44-0.01C59.09,59.19,59.41,59.5,59.75,59.8z"
	/>
<path class="st39" d="M55.85,51.37c-0.13,0.26-0.34,0.35-0.62,0.4c-0.66,0.14-0.95,0.56-0.81,1.23c0.09,0.45,0.12,0.84-0.31,1.13
	l-0.06-0.06c-0.05-0.07-0.09-0.15-0.1-0.24c0-0.09,0-0.18,0.01-0.26c-0.24-1.47,0.1-2.03,1.39-2.32c0.09-0.02,0.18-0.02,0.27-0.02
	C55.71,51.26,55.79,51.31,55.85,51.37z"/>
<path class="st114" d="M71.3,53.31c-1.42,0.01-2.85,0.03-4.27,0.05c-0.28,0-0.32-0.11-0.14-0.31c1.43-0.34,2.87-0.28,4.31-0.03
	C71.33,53.08,71.36,53.18,71.3,53.31z"/>
<path class="st74" d="M57.79,49.21c0.14-0.12,0.27-0.25,0.41-0.37v0c0.39-0.34,0.95-0.12,1.36-0.41c0.26-0.19,0.52-0.23,0.77,0.03
	c0.02,0.05,0.04,0.1,0.05,0.15c-0.21,0.05-0.45,0.01-0.61,0.2c-0.06,0.07-0.16,0.19-0.21,0.17C58.93,48.76,58.4,49.29,57.79,49.21z"
	/>
<path class="st115" d="M71.3,53.31c0.01-0.06,0.01-0.12,0.01-0.18c0.26-1.08-0.11-2.23,0.33-3.29c0.21-0.11,0.32-0.06,0.28,0.19
	c-0.02,0.62-0.06,1.24,0.06,1.85c0.07,0.33-0.04,0.65-0.07,0.97C71.88,53.2,71.65,53.35,71.3,53.31z"/>
<path class="st116" d="M62.54,54.49c-0.3-0.04-0.42-0.38-0.74-0.46c-0.03,0.33,0.19,0.59,0.1,0.88c-0.37-0.18-0.37-0.58-0.52-0.89
	c-0.08-0.15-0.06-0.32,0.09-0.44c0.18-0.13,0.38-0.11,0.54,0.01C62.3,53.82,62.46,54.13,62.54,54.49z"/>
<path class="st117" d="M75.05,50.37c0.27-0.63,0.35-0.66,1.13-0.4c0.19,0.41-0.13,0.63-0.34,0.89c-0.18,0.1-0.37,0.12-0.56,0.02
	C75.09,50.76,75.17,50.52,75.05,50.37z"/>
<path class="st118" d="M66.82,53.17c0.07,0.06,0.14,0.13,0.21,0.19c-0.64,0.28-1.35,0.14-2,0.34c-0.16-0.08-0.27-0.17-0.17-0.37
	C65.49,53.01,66.12,52.67,66.82,53.17z"/>
<path class="st119" d="M71.93,50.03c-0.06-0.07-0.13-0.15-0.19-0.22c-0.36-0.44-0.41-0.97-0.45-1.51c0.06-0.1,0.15-0.12,0.25-0.06
	C72.07,48.75,72.31,49.32,71.93,50.03z"/>
<path class="st109" d="M59.76,55.48c0.46,0.59,0.92,1.17,1.37,1.76c-0.9-0.24-1.16-1.07-1.6-1.73c0.03-0.03,0.07-0.06,0.1-0.09
	C59.68,55.44,59.72,55.46,59.76,55.48z"/>
<path class="st106" d="M75.03,56.66c0-0.06,0-0.13,0-0.19c-0.03-0.3,0.14-0.73-0.23-0.83c-0.44-0.12-0.24,0.51-0.54,0.63
	c0-0.33,0-0.65,0-0.98l0,0C75.28,55.35,75.45,55.65,75.03,56.66z"/>
<path class="st120" d="M75.82,50.78c-0.05-0.35,0.34-0.5,0.36-0.81c0.05-0.13,0.08-0.32,0.27-0.29c0.13,0.02,0.16,0.15,0.18,0.27
	c-0.08,0.2-0.16,0.41-0.24,0.61c-0.01,0.15-0.09,0.24-0.21,0.31C76.05,50.91,75.92,50.89,75.82,50.78z"/>
<path class="st121" d="M74.64,52.55c-0.06,0-0.13,0-0.19,0c-0.06-0.14-0.15-0.29-0.17-0.44c-0.14-0.85,0.05-1.04,0.95-0.94
	c0.01,0.04,0.03,0.08,0.04,0.13c-0.09,0.29-0.58,0.27-0.52,0.68c0.02,0.08,0.03,0.16,0.03,0.25C74.77,52.35,74.74,52.46,74.64,52.55
	z"/>
<path class="st122" d="M64.7,53.76c-0.49,0.27-0.97,0.26-1.45-0.01c0.04-0.16,0.13-0.27,0.28-0.35c0.3-0.12,0.6-0.12,0.9,0
	C64.57,53.48,64.66,53.6,64.7,53.76z"/>
<path class="st43" d="M55.85,51.37c-0.07,0-0.15-0.01-0.22-0.01c-0.06-0.48,0.41-0.77,0.45-1.21c0.04-0.08,0.11-0.14,0.19-0.18
	c0.26,0.19,0.38,0.4,0.21,0.73C56.33,50.98,56.14,51.22,55.85,51.37z"/>
<path class="st116" d="M61.9,54.91c0.46,0.28,0.9,0.58,0.99,1.18C62.46,55.77,62.05,55.45,61.9,54.91z"/>
<path class="st123" d="M63.5,53.55c-0.08,0.07-0.17,0.13-0.25,0.2c-0.37-0.35-0.06-0.81-0.17-1.2c0.06,0,0.13,0,0.19,0
	C63.68,52.81,63.63,53.17,63.5,53.55z"/>
<path class="st124" d="M71.54,48.24c-0.07,0-0.13-0.01-0.2-0.01c-0.04-0.02-0.07-0.04-0.11-0.05c-0.18-0.19-0.28-0.41-0.19-0.68
	c0.07-0.11,0.19-0.15,0.28-0.23c0.06-0.03,0.12-0.02,0.17,0.02c0.02,0.19,0.03,0.39,0.05,0.58C71.54,47.99,71.54,48.11,71.54,48.24z
	"/>
<path class="st109" d="M60.34,54.9l-0.09,0l-0.09-0.01c-0.06-0.07-0.13-0.13-0.2-0.19l0,0c-0.19-0.14-0.4-0.28-0.22-0.57l0.06-0.05
	C60.04,54.31,60.35,54.5,60.34,54.9z"/>
<path class="st43" d="M56.61,48.61c0.03,0.22-0.02,0.47,0.22,0.61c0.02,0.05,0.03,0.09,0.05,0.14c-0.03,0.03-0.07,0.07-0.1,0.1
	c-0.11-0.01-0.22-0.02-0.32-0.03c-0.04-0.03-0.07-0.06-0.11-0.09c-0.12-0.23-0.12-0.46,0.01-0.69
	C56.43,48.58,56.52,48.57,56.61,48.61z"/>
<path class="st16" d="M76.62,46.87c0.26,0.23,0.16,0.54,0.16,0.82C76.59,47.44,76.61,47.16,76.62,46.87z"/>
<path class="st39" d="M55.65,49.81c-0.01-0.12-0.01-0.25-0.02-0.37l0.05-0.05c0.07-0.03,0.15-0.04,0.22-0.02
	c0.15,0.05,0.29,0.11,0.36,0.26c-0.01,0.06-0.01,0.12-0.02,0.18C56.04,49.96,55.84,49.98,55.65,49.81z"/>
<path class="st16" d="M76.82,48.04c0.23,0.19,0.17,0.44,0.15,0.68C76.79,48.53,76.79,48.29,76.82,48.04z"/>
<path class="st125" d="M64.7,53.76c-0.08-0.06-0.17-0.12-0.25-0.18c0.11-0.15,0.24-0.16,0.39-0.06c0.07,0.06,0.13,0.12,0.2,0.18
	C64.92,53.71,64.81,53.73,64.7,53.76z"/>
<path class="st43" d="M56.26,49.62c-0.15-0.01-0.31-0.03-0.41-0.17c0.02-0.04,0.04-0.07,0.07-0.11c0.16-0.09,0.32-0.1,0.47,0.02
	c0,0,0.07,0.07,0.07,0.07C56.39,49.5,56.32,49.56,56.26,49.62z"/>
<path class="st43" d="M57.4,49.46c-0.21,0.25-0.41,0.19-0.62,0l0.06-0.07c0.18-0.11,0.37-0.08,0.56-0.04
	C57.41,49.39,57.41,49.43,57.4,49.46z"/>
<path class="st43" d="M55.65,49.81c0.2,0,0.39,0,0.59,0c0.01,0.06,0.02,0.11,0.03,0.16c-0.03,0.03-0.06,0.06-0.09,0.08
	c-0.17,0.12-0.34,0.11-0.51,0c-0.05-0.05-0.06-0.1-0.06-0.16C55.62,49.83,55.63,49.81,55.65,49.81L55.65,49.81z"/>
<path class="st121" d="M75.05,50.37c0.14,0.1,0.14,0.27,0.19,0.41c0.02,0.04,0.04,0.07,0.06,0.11c-0.03,0.03-0.06,0.06-0.08,0.1
	C75,50.83,75.03,50.6,75.05,50.37z"/>
<path class="st109" d="M59.54,55.51c-0.13-0.1-0.18-0.23-0.2-0.38l0.06-0.06c0.07-0.06,0.12-0.04,0.17,0.03l0,0
	c0.1,0.11,0.11,0.23,0.03,0.36L59.54,55.51z"/>
<path class="st16" d="M76.45,46.09c0.16,0.12,0.16,0.28,0.13,0.46C76.44,46.42,76.42,46.26,76.45,46.09z"/>
<path class="st39" d="M55.65,49.81c0.01,0.07,0.02,0.15,0.02,0.22c-0.04,0.02-0.08,0.04-0.12,0.06c-0.03-0.03-0.07-0.05-0.1-0.08
	l-0.01-0.01C55.51,49.93,55.58,49.87,55.65,49.81z"/>
<path class="st121" d="M75.22,51.17c0.01-0.06,0.01-0.12,0-0.18l0.03-0.03c0.1-0.02,0.18,0.02,0.18,0.11c0,0.09-0.09,0.13-0.19,0.13
	L75.22,51.17z"/>
<path class="st74" d="M57.57,49.39c0.04-0.11,0.11-0.18,0.23-0.19C57.76,49.32,57.68,49.38,57.57,49.39z"/>
<path class="st126" d="M57.83,80.94c0.17,0.01,0.15,0.16,0.2,0.26c-0.21,0.06-0.33-0.06-0.45-0.2
	C57.67,80.98,57.75,80.96,57.83,80.94z"/>
<path class="st127" d="M51.93,50.39c-0.05,0.07-0.11,0.14-0.16,0.21c-0.79,0.26-1.15-0.15-1.02-1.2l0,0
	c0.11-0.08,0.11-0.21,0.13-0.33c0.03-0.03,0.06-0.05,0.1-0.08c0.18,0.1,0.35,0.22,0.56,0.21C51.97,49.5,52.2,49.86,51.93,50.39z"/>
<path class="st128" d="M53.49,50c-0.54,0.33-0.57-0.11-0.58-0.43c-0.02-0.4-0.16-0.58-0.56-0.54c-0.1,0.07-0.19,0.06-0.26-0.04
	c0.54-0.14,0.99-0.53,1.57-0.61c0.03,0.03,0.06,0.05,0.09,0.08c0.01,0.12-0.04,0.23-0.09,0.34c-0.06,0.15-0.06,0.31-0.11,0.45
	c-0.11,0.18-0.1,0.36,0.01,0.53C53.57,49.87,53.56,49.94,53.49,50z"/>
<path class="st129" d="M52.09,49c0.09,0.01,0.17,0.03,0.26,0.04c-0.09,0.44-0.17,0.88-0.26,1.32c-0.05,0.02-0.11,0.03-0.16,0.03
	c-0.01-0.34,0.08-0.71-0.41-0.84c-0.11-0.03-0.01-0.23,0.01-0.34l0,0c0.11-0.1,0.29-0.07,0.4-0.18C51.98,49.02,52.03,49.01,52.09,49
	z"/>
<path class="st96" d="M52.13,47.65c0.03,0,0.06,0,0.1,0c0.29,0.02,0.67,0.04,0.56,0.43c-0.07,0.26-0.45,0.19-0.68,0.11
	C51.59,48.02,52.04,47.83,52.13,47.65C52.12,47.65,52.13,47.65,52.13,47.65z"/>
<path class="st127" d="M50.74,49.04c-0.09-0.68-0.72-0.73-1.16-1c0.74-0.08,1.27,0.15,1.39,0.96l-0.03,0.03
	C50.88,49.11,50.81,49.11,50.74,49.04L50.74,49.04z"/>
<path class="st96" d="M53.5,47.45c0.26,0.21,0.52-0.01,0.78,0c0.12,0.19-0.01,0.32-0.12,0.44c-0.1,0.08-0.22,0.13-0.35,0.15
	c-0.04,0-0.08,0-0.13,0C53.46,47.9,53.5,47.67,53.5,47.45z"/>
<path class="st128" d="M53.65,48.39c0.02-0.05,0.04-0.1,0.04-0.15c0.1-0.11,0.22-0.16,0.37-0.15c0.09,0.02,0.17,0.06,0.24,0.13
	c0.04,0.25-0.12,0.32-0.32,0.35c-0.09-0.01-0.18-0.04-0.26-0.09C53.7,48.45,53.68,48.42,53.65,48.39z"/>
<path class="st96" d="M54.07,48.23c-0.13,0.01-0.26,0.01-0.38,0.02c0-0.07,0-0.13-0.01-0.2l0,0c0.12-0.1,0.25-0.1,0.38-0.05
	c0.05,0.05,0.06,0.11,0.05,0.16C54.11,48.2,54.09,48.23,54.07,48.23z"/>
<path class="st127" d="M51.93,49.03c-0.09,0.16-0.23,0.19-0.4,0.18C51.62,49.06,51.76,49.03,51.93,49.03z"/>
<path class="st47" d="M49.58,48.04c-0.07-0.06-0.13-0.12-0.2-0.19C49.45,47.92,49.51,47.98,49.58,48.04z"/>
<path class="st42" d="M50.74,49.4c-0.04,0.48,0.1,0.87,0.49,1.18c0.2,0.16,0.36,0.05,0.54,0.02c-0.08,0.29-0.24,0.46-0.55,0.3
	C50.66,50.63,50.5,50.11,50.74,49.4z"/>
<path class="st42" d="M50.74,49.03c0.07,0,0.14,0,0.2,0c0,0.16-0.04,0.31-0.2,0.38C50.74,49.28,50.74,49.16,50.74,49.03z"/>
<path class="st130" d="M61.59,94.59l0.01-0.06l0.06-0.01C61.67,94.57,61.65,94.59,61.59,94.59z"/>
<path class="st51" d="M60.57,93.36c0,0,0.04-0.05,0.04-0.05c0,0,0.02,0.06,0.02,0.06L60.57,93.36z"/>
<path class="st131" d="M69.74,84.85c0.16-0.02,0.19,0.09,0.21,0.21C69.82,85.05,69.73,85,69.74,84.85z"/>
<path class="st132" d="M66.01,45.5c0.06-0.12,0.1-0.24,0.18-0.35c0.34-0.48,0.53-0.51,0.89-0.08c0.53,0.64,0.76,1.42,0.91,2.21
	c0.04,0.21-0.04,0.46,0.21,0.6c0.05,0.16,0.17,0.28,0.27,0.41c0.12,0.27,0.04,0.51-0.06,0.76c-0.03,0.09-0.07,0.17-0.12,0.25
	c-0.07,0.13-0.14,0.25-0.23,0.36c-0.78,0.45-1.19,0.37-1.9-0.37c0-0.21,0.09-0.38,0.25-0.51c0.24-0.06,0.44,0.09,0.65,0.15
	c0.24,0.06,0.35-0.02,0.36-0.29c0.03-0.81-0.23-1.92-0.67-2.67c-0.31,0.68,0.22,1.51-0.41,2.12c-0.31-0.05-0.45-0.26-0.5-0.55
	C66.04,46.87,65.82,46.17,66.01,45.5z"/>
<path class="st133" d="M69.74,46.11c-0.45-0.2-0.82-0.49-0.98-0.97c-0.09-0.13-0.06-0.3-0.16-0.42c-0.07-0.13-0.07-0.26-0.01-0.39
	c0.17-0.19,0.05-0.45,0.17-0.65c-0.02-0.06,0-0.11,0.07-0.13c0.2-0.02,0.26,0.07,0.18,0.25c-0.03,1.3,0.28,1.71,1.38,1.91
	c0.67,0.12,1.14-0.1,1.46-0.68c0.09-0.17,0.18-0.35,0.26-0.52c0.18-0.07,0.26,0.04,0.32,0.18c0.02,0.15-0.02,0.28-0.09,0.41
	c-0.05,0.04-0.07,0.09-0.05,0.16c-0.04,0.58-0.36,0.93-0.92,1.07c-0.34,0.08-0.69,0.14-1.02-0.03c-0.05-0.02-0.11-0.03-0.17-0.04
	C70.03,46.17,69.87,46.19,69.74,46.11z"/>
<path class="st134" d="M66.01,45.5c0,0.71,0.01,1.42,0.01,2.12c-0.59,0.15-1.16-0.24-1.75-0.05c-0.16,0.05-0.27-0.39-0.49,0.01
	c-0.16,0.3-0.52,0.46-0.91,0.39c-0.21-0.07-0.3-0.22-0.3-0.44c0.08-0.46,0.39-0.73,0.75-0.97c0.45-0.26,0.88-0.55,1.25-0.91
	c0.08-0.04,0.17-0.03,0.25,0.01c0,0.06,0.01,0.13-0.01,0.19c-0.4,1.18-0.4,1.18,0.93,1.21C65.99,46.57,65.61,45.97,66.01,45.5z"/>
<path class="st135" d="M64.67,45.72c-0.18,0.59-0.74,0.7-1.19,0.95c-0.17,0.14-0.39,0.1-0.57,0.19c-0.35,0.09-0.71,0.07-1.06,0
	c-0.3-0.09-0.56-0.23-0.76-0.47C61.03,46.3,61,46.2,60.98,46.1c-0.01-0.1,0.01-0.2,0.04-0.29c0.08-0.14,0.19-0.21,0.35-0.21
	c0.29,0.05,0.5,0.28,0.79,0.37c1.03,0.3,1.79-0.22,2.15-1.48c0.08-0.13,0.17-0.23,0.34-0.17c0.04,0.04,0.05,0.09,0.04,0.14
	c0.05,0.15,0.03,0.32,0.13,0.46c0,0.13,0,0.26,0,0.39C64.72,45.42,64.78,45.6,64.67,45.72z"/>
<path class="st136" d="M71.16,44.3c0,0.49-0.26,0.75-0.71,0.73c-0.43-0.02-0.83-0.4-0.86-0.8c-0.02-0.43,0.33-0.74,0.84-0.74
	C70.95,43.5,71.17,43.74,71.16,44.3z"/>
<path class="st137" d="M67.59,42.17c0.31-0.26,0.42-0.64,0.59-0.98c0.2-0.39,0.46-0.39,0.78-0.2c0.33,0.33-0.24,0.64-0.02,0.97
	c-0.09,0.15-0.23,0.23-0.4,0.17c-0.25-0.08-0.39,0-0.36,0.26c0.04,0.36-0.15,0.62-0.34,0.87c-0.29,0.38-0.47,0.17-0.63-0.12
	c0.14-0.2,0.15-0.4-0.01-0.6c0.14-0.13,0.27-0.26,0.41-0.39L67.59,42.17z"/>
<path class="st138" d="M57.8,38.84c-0.01-0.27,0.23-0.49,0.16-0.77c0.16-0.23,0.39-0.2,0.62-0.21c0.56,0.31,0.54-0.32,0.79-0.56
	c0.29,0.29,0.18,0.67,0.37,0.93c0.12,0.16,0.16,0.37-0.05,0.51c-0.23,0.16-0.42,0.06-0.62-0.08c-0.24-0.18-0.35-0.57-0.81-0.52
	c-0.05,0.37,0.23,0.6,0.31,0.9C58.25,39.27,58.06,38.91,57.8,38.84z"/>
<path class="st139" d="M71.32,42.16c0.61-0.61,1.07-0.09,1.55,0.2c0.28,0.31-0.04,0.41-0.2,0.57c-0.09,0.13-0.28,0.09-0.37,0.22l0,0
	c-0.08,0.07-0.18,0.1-0.28,0.08c-0.33-0.22-1.01,0.09-0.97-0.66c0.2-0.31,0.61-0.13,0.84-0.34c0.14-0.02-0.02-0.14,0.02-0.01
	c0.01,0.03-0.02,0.03-0.08,0.05C71.63,42.35,71.46,42.33,71.32,42.16z"/>
<path class="st140" d="M70.33,46.3c0.33-0.06,0.67-0.11,1-0.16c0.41,0.33,0.64,0,0.91-0.23c0.18-0.16,0.34-0.44,0.64-0.18
	C72.73,47.09,71.37,47.21,70.33,46.3z"/>
<path class="st141" d="M63.11,42.73c0.31,0.05,0.54,0.22,0.77,0.41c-0.33,0.05-0.08,0.45-0.33,0.54c-0.46,0.14-0.95,0.18-1.42,0.29
	c-0.25,0.02-0.5,0.01-0.72-0.11c-0.15-0.72,0.55-0.67,0.87-0.95C62.5,42.71,62.85,42.86,63.11,42.73z"/>
<path class="st142" d="M63.11,42.73c-0.03,0.09-0.07,0.26-0.09,0.26c-0.72-0.08-1.13,0.53-1.71,0.74c-0.4,0.06-0.49-0.17-0.47-0.51
	c0.04-0.09,0.1-0.15,0.18-0.2c0.42-0.06,0.7-0.37,1.01-0.6c0.25-0.09,0.48-0.04,0.7,0.1C62.86,42.59,62.98,42.66,63.11,42.73z"/>
<path class="st143" d="M71.13,42.57c0.01,0.27,0.16,0.37,0.42,0.37c0.21,0,0.43,0,0.57,0.22c-0.02,0.31-0.19,0.3-0.41,0.2
	c-0.7-0.28-1.45-0.29-2.23-0.33c0.19-0.53,0.67-0.42,1.04-0.51c0.14,0.06,0.28,0.05,0.42-0.03C71.01,42.48,71.08,42.51,71.13,42.57z
	"/>
<path class="st144" d="M72.87,45.72c-0.34-0.04-0.4,0.25-0.53,0.45c-0.28,0.44-0.67,0.37-1.06,0.22c-0.01-0.01,0.03-0.16,0.04-0.25
	c0.48-0.11,0.7-0.51,0.94-0.87C72.37,45.54,72.78,45.42,72.87,45.72z"/>
<path class="st145" d="M72.32,37.1c0.05-0.01,0.1-0.02,0.16-0.03c0.53,0.31,0.27,0.96,0.58,1.37c0.13,0.09,0.15,0.21,0.12,0.36
	c-0.05,0.13-0.15,0.22-0.29,0.25c-0.32-0.07-0.17-0.42-0.36-0.57c-0.21-0.08-0.23-0.29-0.3-0.46c-0.01-0.19-0.05-0.38,0.06-0.55
	C72.29,37.34,72.3,37.22,72.32,37.1z"/>
<path class="st146" d="M71.7,43.36c0.15-0.04,0.33-0.02,0.41-0.2c0.07,0,0.13,0,0.2,0c0.24,0.38,0.65,0.65,0.73,1.12
	c0.05,0.29,0.11,0.61-0.35,0.62c-0.24-0.21-0.24-0.49-0.21-0.78C72.37,43.72,71.95,43.63,71.7,43.36z"/>
<path class="st82" d="M60.91,41.36c0.91-0.33,1.51-0.06,1.79,0.81c-0.39,0.29-0.61-0.13-0.91-0.21c-0.15-0.01-0.3,0.07-0.45,0.01
	c-0.13-0.1-0.18-0.25-0.23-0.39c-0.04-0.06-0.09-0.12-0.14-0.18L60.91,41.36z"/>
<path class="st147" d="M66.44,43.14c0.27-0.22,0.14-0.55,0.2-0.82c0.44,0.73,0,1.29-0.32,1.87c-0.28-0.07-0.27-0.28-0.32-0.46
	C65.84,43.31,66.06,43.17,66.44,43.14z"/>
<path class="st148" d="M61.72,41.58c0.37,0.13,0.52,0.62,0.98,0.58c0.01,0.12,0.02,0.23,0.04,0.35c-0.27,0.02-0.54,0.03-0.81,0.05
	c-0.11,0.06-0.2,0.05-0.29-0.05C61.47,42.19,61.59,41.89,61.72,41.58z"/>
<path class="st138" d="M60.94,39.18c0.18,0.39,0.43,0.63,0.08,0.94c-0.15,0.13-0.26,0.32-0.48,0.15c-0.18-0.14-0.19-0.3,0-0.48
	C60.68,39.66,60.75,39.47,60.94,39.18z"/>
<path class="st149" d="M68.94,41.97c-0.22-0.03-0.41-0.1-0.26-0.36c0.11-0.2,0.29-0.36,0.28-0.61c0.37-0.06,0.59,0.13,0.46,0.39
	C69.31,41.61,69.11,41.77,68.94,41.97z"/>
<path class="st111" d="M67.6,42.16c-0.21-0.02-0.36-0.11-0.38-0.35c-0.02-0.42,0.11-0.78,0.37-1.12c0,0.49,0,0.98,0,1.48
	C67.59,42.17,67.6,42.16,67.6,42.16z"/>
<path class="st150" d="M57.8,38.84c0.35-0.27,0.49,0.27,0.79,0.2c0.07,0.06,0.13,0.12,0.2,0.17c-0.13,0.14-0.27,0.28-0.4,0.42
	c-0.19-0.14-0.38-0.27-0.56-0.41C57.81,39.09,57.81,38.96,57.8,38.84z"/>
<path class="st151" d="M68.38,48.24c-0.11,0-0.24,0.15-0.32,0.03c-0.11-0.16,0.13-0.24,0.15-0.39c0.37-0.18,0.75-0.35,1.17-0.4
	c0.12,0.06,0.26,0.12,0.23,0.29C69.29,48.18,68.85,48.25,68.38,48.24z"/>
<path class="st152" d="M71.14,41.38c-0.19,0-0.38-0.01-0.57-0.01c-0.13-0.41,0.35-0.56,0.38-0.91c0.06-0.16,0.19-0.15,0.32-0.13
	c0.18,0.09,0.2,0.26,0.21,0.43c-0.01,0.08-0.03,0.16-0.05,0.24c-0.03,0.07-0.08,0.14-0.13,0.2C71.24,41.26,71.19,41.32,71.14,41.38z
	"/>
<path class="st153" d="M66.44,43.14c-0.13,0.21-0.45,0.28-0.44,0.59c-0.16-0.09-0.29-0.21-0.37-0.39c0.12-0.07,0.17-0.17,0.19-0.31
	c0.03-0.19,0.09-0.4,0.34-0.35C66.39,42.74,66.4,42.96,66.44,43.14z"/>
<path class="st154" d="M72.88,39.05c0.07-0.07,0.13-0.14,0.2-0.21c0.11-0.14,0.2-0.31,0.41-0.33c0.14-0.01,0.27,0.03,0.37,0.13
	c-0.02,0.21-0.56,0.27-0.19,0.6c-0.2,0.34-0.58-0.08-0.79,0.18C72.87,39.3,72.88,39.17,72.88,39.05z"/>
<path class="st155" d="M63.69,43.51c-0.08-0.09-0.24-0.23-0.22-0.28c0.08-0.16,0.28-0.05,0.42-0.1c0.34,0.26,0.74,0.49,0.77,0.99
	c-0.3,0.13-0.45-0.11-0.65-0.25C63.88,43.77,63.74,43.68,63.69,43.51z"/>
<path class="st156" d="M71.13,42.57c-0.07-0.01-0.13-0.02-0.2-0.02c-0.06-0.04-0.08-0.09-0.07-0.14c0.01-0.05,0.03-0.08,0.05-0.08
	c0.07-0.06,0.14-0.12,0.2-0.18c0.07,0,0.14,0.01,0.21,0.01c0.21,0.01,0.42,0.02,0.71,0.04C71.78,42.63,71.43,42.53,71.13,42.57z"/>
<path class="st105" d="M64.87,41.99c0.61,0.2,0.74,0.43,0.55,0.99c-0.17-0.1-0.29-0.24-0.37-0.42c-0.13-0.1-0.08-0.28-0.18-0.4
	C64.86,42.1,64.86,42.04,64.87,41.99z"/>
<path class="st157" d="M72.33,38.69c-0.02,0.2-0.13,0.36-0.26,0.5c-0.09,0.09-0.21,0.16-0.32,0.05c-0.05-0.05-0.07-0.19-0.04-0.25
	c0.12-0.25,0.14-0.56,0.37-0.76C72.28,38.32,72.29,38.51,72.33,38.69z"/>
<path class="st123" d="M72.65,39.8c0.14,0.07,0.28,0.14,0.42,0.21c0.06,0.05,0.07,0.1,0.06,0.14c-0.02,0.05-0.04,0.07-0.05,0.07
	c-0.17,0.09-0.33,0.18-0.5,0.26c-0.3,0.14-0.29-0.1-0.32-0.28C72.39,40.07,72.52,39.93,72.65,39.8z"/>
<path class="st144" d="M72.48,44.13c0.28,0.2,0.18,0.51,0.21,0.78c-0.13,0.07-0.25,0.13-0.37,0.2c0.01-0.12,0.02-0.23,0.03-0.35
	c0.08-0.24-0.11-0.32-0.25-0.43C72.18,44.16,72.32,44.13,72.48,44.13z"/>
<path class="st158" d="M69.59,47.69c-0.07-0.07-0.15-0.14-0.22-0.2c0.31-0.11,0.61-0.31,0.97-0.23c0.08,0.09,0.1,0.18,0.08,0.3
	C70.19,47.89,69.91,47.9,69.59,47.69z"/>
<path class="st100" d="M66.85,41.24c-0.13-0.05-0.34-0.03-0.3-0.26c0.03-0.14,0.09-0.33,0.29-0.28c0.13,0.03,0.13,0.19,0.16,0.31
	C66.96,41.08,66.91,41.16,66.85,41.24z"/>
<path class="st92" d="M62.7,40.18c0.19-0.12,0.37-0.24,0.56-0.37c0,0.03,0.01,0.06,0.01,0.1c-0.01,0.18,0.13,0.42-0.08,0.52
	C62.98,40.53,62.87,40.25,62.7,40.18z"/>
<path class="st87" d="M71.14,41.38c0-0.05,0.01-0.1,0.02-0.16c0.03-0.1,0.09-0.17,0.16-0.23l0,0c0.17-0.09,0.01-0.51,0.39-0.39
	c0.07,0.07,0.14,0.14,0.2,0.21C71.73,41.1,71.51,41.35,71.14,41.38z"/>
<path class="st159" d="M72.33,38.69c-0.23-0.08-0.23-0.28-0.26-0.46c0.02-0.05,0.03-0.11,0.03-0.16c0.03-0.07,0.08-0.09,0.15-0.06
	c0.21,0.09,0.22,0.29,0.26,0.47C72.46,38.55,72.4,38.62,72.33,38.69z"/>
<path class="st160" d="M70.34,47.47c0-0.07,0-0.15-0.01-0.22c0.33-0.13,0.66-0.12,0.98,0.02c-0.09,0.08-0.17,0.16-0.26,0.24
	C70.81,47.68,70.57,47.67,70.34,47.47z"/>
<path class="st161" d="M64.08,43.74c0.19,0.13,0.38,0.26,0.58,0.39c0,0.06,0.01,0.13,0.01,0.19c-0.08,0.08-0.17,0.17-0.25,0.26
	C64.01,44.41,63.85,44.15,64.08,43.74z"/>
<path class="st162" d="M70.9,42.33c0.01,0.07,0.01,0.14,0.02,0.22c-0.01,0.13-0.03,0.29-0.17,0.31c-0.22,0.03-0.21-0.19-0.25-0.33
	C70.61,42.38,70.74,42.32,70.9,42.33z"/>
<path class="st85" d="M71.71,40.61c-0.13,0.13-0.26,0.26-0.39,0.39c0-0.19,0-0.39-0.01-0.58c0.02-0.12,0.14-0.13,0.22-0.19
	c0.06-0.01,0.11-0.01,0.17-0.01C71.82,40.34,71.81,40.47,71.71,40.61L71.71,40.61z"/>
<path class="st87" d="M71.53,40.23c-0.07,0.06-0.14,0.13-0.22,0.19c-0.12,0.02-0.24,0.03-0.36,0.05
	C71.05,40.15,71.3,40.22,71.53,40.23z"/>
<path class="st163" d="M72.1,44.33c0.37-0.02,0.47,0.11,0.25,0.43c-0.06-0.11-0.11-0.23-0.26-0.24
	C72.08,44.45,72.08,44.39,72.1,44.33z"/>
<path class="st164" d="M68.75,43.67c0.02,0.23,0.07,0.48-0.17,0.65C68.53,44.08,68.58,43.86,68.75,43.67z"/>
<path class="st164" d="M68.99,43.8c-0.06-0.08-0.12-0.17-0.18-0.25c0.02-0.11,0.12-0.18,0.19-0.13
	C69.17,43.53,69.05,43.67,68.99,43.8z"/>
<path class="st68" d="M72.25,38.01c-0.04,0.03-0.09,0.05-0.15,0.06c-0.02-0.22-0.04-0.44,0.16-0.6
	C72.27,37.65,72.26,37.83,72.25,38.01z"/>
<path class="st165" d="M67.19,42.55c0.26,0.19,0.27,0.39,0.01,0.6C67.2,42.95,67.19,42.75,67.19,42.55z"/>
<path class="st164" d="M68.59,44.72c0.15,0.1,0.18,0.26,0.16,0.42C68.65,45.02,68.56,44.89,68.59,44.72z"/>
<path class="st161" d="M64.83,44.91c-0.15-0.12-0.2-0.27-0.13-0.46C64.86,44.57,64.88,44.73,64.83,44.91z"/>
<path class="st140" d="M69.74,46.11c0.16-0.02,0.31,0,0.42,0.14C69.98,46.31,69.85,46.23,69.74,46.11z"/>
<path class="st58" d="M64.88,42.16c0.14,0.09,0.18,0.23,0.18,0.4C64.89,42.47,64.85,42.33,64.88,42.16z"/>
<path class="st161" d="M64.67,45.72c-0.04-0.17,0.02-0.31,0.16-0.42c0,0.12,0,0.24,0,0.36C64.78,45.68,64.73,45.7,64.67,45.72z"/>
<path class="st146" d="M72.3,43.16c0.05-0.2,0.2-0.22,0.37-0.22C72.61,43.11,72.47,43.15,72.3,43.16z"/>
<path class="st87" d="M71.71,40.6c-0.01-0.13-0.01-0.26-0.02-0.39C71.94,40.33,71.91,40.47,71.71,40.6z"/>
<path class="st166" d="M65.27,39.43c0.12,0.03,0.33,0.06,0.29,0.18c-0.19,0.56-0.1,1.1-0.01,1.66c0.01,0.04-0.08,0.09-0.12,0.14
	c-0.12-0.03-0.24-0.06-0.35-0.1c0.08-0.5,0.42-1-0.03-1.49C64.96,39.6,64.88,39.38,65.27,39.43z"/>
<path class="st167" d="M66.03,39.06c0.35,0.14,0.04,0.61,0.38,0.76c0.03,0.28-0.09,0.46-0.36,0.55
	C66.07,39.93,65.67,39.5,66.03,39.06z"/>
<path class="st168" d="M65.27,39.43c-0.16,0.08-0.24,0.21-0.23,0.39c-0.04,0.12,0,0.28-0.16,0.33c0.01-0.05,0-0.09-0.01-0.14
	c-0.07-0.17-0.26-0.15-0.39-0.23l0.01,0.02c-0.06-0.04-0.08-0.07-0.07-0.12c0.02-0.04,0.03-0.07,0.05-0.07
	c-0.03-0.31,0.2-0.42,0.43-0.52C65.13,39.09,65.45,38.99,65.27,39.43z"/>
<path class="st169" d="M64.03,39.5c0.01,0.16,0.01,0.31,0.02,0.47C63.82,39.83,63.81,39.67,64.03,39.5z"/>
<path class="st61" d="M74.63,37.27c0.02,0.18,0.05,0.38-0.17,0.45c-0.14,0.05-0.2-0.07-0.24-0.19c-0.05-0.08-0.1-0.16-0.15-0.24
	c-0.12,0.1-0.09,0.26-0.17,0.38c-0.11,0.09-0.24,0.11-0.37,0.09c-0.14-0.05-0.23-0.13-0.29-0.27c-0.05-0.19,0.03-0.35,0.16-0.48
	c0.25-0.1,0.1-0.4,0.28-0.54c0.13,0.07,0.25,0.14,0.38,0.2c0.13-0.1,0.08-0.29,0.2-0.39c0.33-0.32,0.51-0.22,0.58,0.2
	C74.47,36.67,74.49,36.95,74.63,37.27z"/>
<path class="st170" d="M74.63,37.27c-0.21-0.16-0.18-0.39-0.18-0.61c0-0.34,0.21-0.23,0.39-0.17c-0.01,0.07-0.01,0.15-0.02,0.23
	C74.59,36.84,74.67,37.08,74.63,37.27z"/>
<path class="st170" d="M73.67,36.48c-0.02,0.21,0.04,0.45-0.19,0.59c-0.05-0.04-0.07-0.08-0.06-0.13c0.01-0.05,0.02-0.07,0.04-0.07
	c0-0.19,0.01-0.38,0.01-0.57C73.54,36.36,73.61,36.42,73.67,36.48z"/>
<path class="st171" d="M73.67,35.9c0-0.06,0-0.13,0-0.19c0.1-0.02,0.26-0.17,0.3-0.02C74.03,35.9,73.81,35.88,73.67,35.9z"/>
<path class="st170" d="M74.25,36.29c0,0.16-0.04,0.31-0.2,0.39C74.06,36.53,74.09,36.37,74.25,36.29z"/>
<path class="st69" d="M74.87,35.5c0.05,0.07,0.1,0.15,0.15,0.22C74.97,35.65,74.92,35.58,74.87,35.5z"/>
<path class="st172" d="M73.43,38.64c-0.12,0.06-0.23,0.13-0.35,0.19c-0.01-0.13-0.02-0.27-0.03-0.4c0.02-0.06,0.03-0.12,0.04-0.18
	c0.15-0.13,0.02-0.56,0.44-0.4c0.09,0.12,0.13,0.26,0.12,0.42C73.63,38.43,73.56,38.56,73.43,38.64z"/>
<path class="st145" d="M73.46,36.87c0,0.07,0.01,0.13,0.02,0.2c-0.07,0.13-0.13,0.27-0.2,0.4c0.07,0.2-0.02,0.24-0.19,0.2
	c0-0.21-0.01-0.42,0-0.63C73.09,36.71,73.3,36.83,73.46,36.87z"/>
<path class="st170" d="M73.08,37.67c0.06-0.07,0.13-0.13,0.19-0.2c0.07,0.07,0.13,0.13,0.2,0.2c0.06,0.07,0.05,0.14-0.02,0.2
	c-0.12,0.13-0.24,0.26-0.37,0.38C73.09,38.06,73.08,37.86,73.08,37.67z"/>
<path class="st145" d="M72.49,36.88c-0.01-0.17,0.04-0.31,0.17-0.43C72.69,36.63,72.66,36.78,72.49,36.88z"/>
<path class="st59" d="M64.47,39.79c0.22-0.08,0.41-0.11,0.39,0.23C64.69,40.01,64.53,39.98,64.47,39.79z"/>
<path class="st59" d="M64.47,39.62c0.02,0.06,0.02,0.12,0.02,0.18C64.33,39.76,64.33,39.69,64.47,39.62z"/>
<path class="st58" d="M66.64,39.63c0.05-0.08,0.09-0.16,0.14-0.25C66.78,39.5,66.73,39.58,66.64,39.63z"/>
<path class="st173" d="M75.43,52.16c0.07,0.19,0.14,0.38,0.22,0.57c0.1,0.22,0.15,0.47-0.06,0.63c-0.24,0.18-0.42-0.02-0.57-0.2v0
	c-0.09-0.12-0.06-0.3-0.18-0.4v0c-0.17-0.16,0-0.44-0.21-0.58h0c-0.1-0.25-0.2-0.55,0.13-0.64C75.26,51.38,75.26,51.88,75.43,52.16z
	"/>
<path class="st174" d="M75.43,52.16c-0.07-0.07-0.14-0.13-0.2-0.21c-0.11-0.16-0.2-0.38-0.43-0.29c-0.23,0.08-0.13,0.33-0.17,0.51
	c-0.25-0.64-0.25-0.64,0.28-0.8c0.13-0.04,0.25-0.06,0.34-0.16c0.13-0.08,0.13-0.16,0.01-0.24c-0.01-0.06-0.01-0.12-0.01-0.18
	c0.19,0,0.39,0,0.58,0c0.13,0,0.26,0,0.38,0c0.11,0.35-0.1,0.5-0.39,0.6C75.46,51.52,75.4,51.82,75.43,52.16z"/>
<path class="st175" d="M75.82,51.37c0.13-0.2,0.26-0.4,0.39-0.6c0.06-0.07,0.13-0.14,0.19-0.21c0.25,0.13,0.25,0.42,0.41,0.61
	c-0.8,0.27-0.41,0.88-0.4,1.38C76.02,52.25,76.04,51.75,75.82,51.37z"/>
<path class="st174" d="M75.02,53.15c0.54,0.18,0.54,0.18,0.62-0.42c0.1,0.09,0.16,0.2,0.16,0.33c0,0.27-0.03,0.56-0.34,0.59
	C75.13,53.69,75.05,53.42,75.02,53.15z"/>
<path class="st174" d="M74.63,52.16c0.24,0.13,0.21,0.36,0.21,0.58c-0.07-0.07-0.13-0.13-0.2-0.2
	C74.64,52.42,74.63,52.29,74.63,52.16z"/>
<path class="st174" d="M74.84,52.75c0.16,0.09,0.2,0.23,0.18,0.4C74.87,53.05,74.83,52.91,74.84,52.75z"/>
<path class="st176" d="M76.23,57.43c-0.01-0.06-0.01-0.12,0-0.18c0.18-0.53,0.03-1.08,0.09-1.61c0.08-0.61,0.28-1.08,1.04-0.72
	c0,0.12,0,0.23,0,0.35c-0.11,0.56-0.12,1.14-0.18,1.71c-0.05,0.46-0.19,0.83-0.78,0.68l-0.01-0.01
	C76.33,57.58,76.28,57.51,76.23,57.43z"/>
<path class="st177" d="M77.36,54.92c-0.78,0.12-0.88,0.24-0.95,0.92c-0.05,0.47,0.13,0.97-0.18,1.41c0-0.91,0-1.82,0-2.73
	C76.64,54.56,77.15,54.31,77.36,54.92z"/>
<path class="st177" d="M76.4,57.66c0.44-0.04,0.58-0.31,0.6-0.72c0.02-0.57,0.15-1.13,0.36-1.66c0.01,0.61,0.04,1.23,0.02,1.84
	C77.35,57.69,77.1,57.82,76.4,57.66z"/>
<path class="st177" d="M76.23,57.43c0.05,0.07,0.1,0.15,0.16,0.22c-0.06,0-0.12-0.01-0.17-0.02C76.22,57.57,76.23,57.5,76.23,57.43z
	"/>
<path class="st178" d="M60.34,48.46c-0.26-0.01-0.52-0.02-0.77-0.03c0-0.13,0-0.26,0-0.39c-0.03-0.08-0.07-0.09-0.13-0.03
	c-0.35,0.05-0.72,0.02-1.04,0.23c0.08-0.44-0.58-0.64-0.38-1.13c0.05-0.12,0.11-0.19,0.08-0.06c0,0,0.06,0.03,0.08,0.04
	c0.2,0.37,0.35,0.31,0.51-0.04c0.09-0.2,0.04-0.6,0.47-0.36c0.61,0.41,1.06,1,1.64,1.45c-0.04,0.25-0.27,0.17-0.42,0.24L60.34,48.46
	z"/>
<path class="st179" d="M55.85,49.45c-0.06-0.03-0.11-0.05-0.17-0.07c-0.01-0.27-0.07-0.52-0.23-0.74c-0.05-0.07-0.08-0.14-0.1-0.23
	c0-0.25-0.17-0.48-0.11-0.74c0.09-0.11,0.2-0.14,0.34-0.14c0.12,0.02,0.24,0.06,0.36,0.1c0.08,0.02,0.16,0.05,0.23,0.07
	c0.23,0.06,0.51-0.08,0.7,0.14c0.01,0.23-0.08,0.42-0.25,0.57c-0.01,0.06-0.01,0.12-0.01,0.18c-0.06,0.01-0.12,0.02-0.18,0.02
	c-0.3,0.17-0.32,0.56-0.6,0.75L55.85,49.45z"/>
<path class="st90" d="M56.83,47.85c-0.25-0.12-0.53,0.38-0.76-0.04c0.05-0.18,0.21-0.26,0.35-0.35c0.19-0.08,0.33-0.28,0.57-0.2
	c0,0.18,0,0.37,0,0.55C56.97,47.93,56.92,47.95,56.83,47.85z"/>
<path class="st180" d="M57,47.26c-0.18,0.14-0.26,0.43-0.57,0.38c-0.04-0.2-0.07-0.4,0.02-0.59c0.19,0,0.38,0.01,0.57,0.01
	C57.01,47.13,57,47.19,57,47.26z"/>
<path class="st43" d="M56.83,47.85c0.06-0.01,0.11-0.02,0.16-0.04c0.03,0.3,0.06,0.59-0.37,0.62C56.6,48.21,56.75,48.04,56.83,47.85
	z"/>
<path class="st181" d="M57.4,49.36c-0.18,0.12-0.37,0.1-0.56,0.04c0-0.06,0-0.11-0.01-0.17c0.05-0.02,0.1-0.03,0.15-0.03
	C57.13,49.22,57.29,49.23,57.4,49.36z"/>
<path class="st84" d="M62.16,43.76c-0.2,0.16-0.4,0.32-0.6,0.49c-0.28,0.25-0.46,0.14-0.53-0.19c-0.34,0.22-0.22,0.75-0.68,0.82
	c-0.23-0.31-0.21-0.68-0.2-1.04c0.01-0.26,0.05-0.53-0.21-0.71l0.01,0.01c-0.13-0.13-0.27-0.26-0.4-0.4
	c-0.05-0.05-0.06-0.1-0.04-0.14c0.02-0.04,0.05-0.06,0.07-0.06c0.17-0.08,0.29-0.21,0.36-0.39c0.13-0.07,0.27-0.14,0.4-0.2
	c0.29-0.12,0.52,0.13,0.79,0.14c0.24,0.08,0.4,0.26,0.57,0.44c0.07,0,0.14,0.01,0.21,0.01c-0.14,0.59-0.14,0.59-0.99,0.58
	l-0.02-0.02l0.02,0.02c0,0.28,0.11,0.48,0.38,0.58C61.6,43.74,61.88,43.75,62.16,43.76z"/>
<path class="st182" d="M61.12,46.88c-0.13,0-0.26,0-0.38-0.01c-0.97-0.07-1.3-0.61-0.97-1.57c0.19,0.1,0.16,0.32,0.25,0.48
	c0.07,0.13,0.16,0.29,0.34,0.1c0.15,0.09,0.19,0.23,0.19,0.38C60.69,46.52,61.19,46.43,61.12,46.88z"/>
<path class="st84" d="M59.95,43.14c-0.02,0.09-0.02,0.2-0.07,0.28c-0.05,0.09-0.1,0.28-0.26,0.13c-0.02-0.02,0.04-0.18,0.1-0.24
	C59.78,43.24,59.88,43.2,59.95,43.14C59.96,43.15,59.95,43.14,59.95,43.14z"/>
<path class="st84" d="M59.24,43.66c-0.02,0.01-0.05,0.03-0.07,0.02c-0.07-0.02-0.08-0.06-0.02-0.09c0.02-0.01,0.05,0,0.07,0.01
	C59.24,43.61,59.24,43.64,59.24,43.66z"/>
<path class="st183" d="M59.37,42.76c-0.02,0.08-0.05,0.17-0.07,0.26C59.12,42.87,59.29,42.83,59.37,42.76L59.37,42.76z"/>
<path class="st183" d="M59.59,42.56c-0.01,0.06-0.02,0.13-0.03,0.19l-0.1,0l-0.1,0l0,0C59.44,42.69,59.52,42.63,59.59,42.56z"/>
<path class="st169" d="M56.87,35.53c0.15-0.09,0.29-0.2,0.48-0.18c-0.14,0.28-0.04,0.59-0.01,0.95
	C56.87,36.13,56.76,35.89,56.87,35.53z"/>
<path class="st77" d="M57.02,36.88c-0.06-0.06-0.13-0.13-0.19-0.19C56.89,36.75,56.96,36.81,57.02,36.88z"/>
<path class="st77" d="M56.82,36.68c-0.06-0.06-0.13-0.13-0.2-0.19C56.69,36.55,56.76,36.62,56.82,36.68z"/>
<path class="st77" d="M57.41,36.87c-0.07,0-0.13,0-0.2,0C57.28,36.76,57.35,36.76,57.41,36.87z"/>
<path class="st169" d="M59.18,40.4c-0.03-0.01-0.08-0.03-0.08-0.04C59.11,40.3,59.14,40.32,59.18,40.4
	C59.17,40.41,59.18,40.4,59.18,40.4z"/>
<path class="st184" d="M61.15,42.18c-0.34,0.23-0.55-0.09-0.8-0.21c0.14-0.23,0.37-0.19,0.58-0.2c0.13-0.09,0.07-0.29,0.22-0.36
	c0.23,0.14,0.16,0.36,0.17,0.57c0,0-0.02,0.07-0.01,0.07c-0.02,0.04-0.06,0.08-0.1,0.11C61.22,42.15,61.15,42.18,61.15,42.18z"/>
<path class="st84" d="M61.15,41.4c-0.03,0.15-0.06,0.3-0.22,0.36c0.01-0.12,0.01-0.24,0.02-0.36C61.02,41.4,61.09,41.4,61.15,41.4z"
	/>
<path class="st170" d="M73.83,37.67c0.02-0.22,0.04-0.44,0.07-0.66c0.36,0.06,0.33,0.3,0.32,0.52c-0.37,0.23-0.06,0.69-0.32,0.95
	c-0.15-0.09-0.2-0.22-0.21-0.39C73.68,37.94,73.74,37.8,73.83,37.67z"/>
<path class="st97" d="M73.83,38.07c0.02,0.14,0.04,0.28,0.07,0.42c0,0.05-0.02,0.1-0.04,0.15c-0.14,0-0.28,0-0.42,0.01
	c0.02-0.13,0.05-0.27,0.07-0.4C73.57,38.1,73.65,38,73.83,38.07z"/>
<path class="st154" d="M74.05,39.03c-0.03,0.1-0.1,0.17-0.21,0.18C73.91,39.15,73.98,39.09,74.05,39.03z"/>
<path class="st178" d="M73.07,40.22c0-0.07,0-0.15,0-0.22c0.06-0.08,0.1-0.16,0.17-0.23c0.12-0.12,0.31-0.22,0.42-0.1
	c0.12,0.14-0.17,0.21-0.17,0.36C73.38,40.19,73.25,40.25,73.07,40.22z"/>
<path class="st91" d="M54.07,48.23c0.01-0.06,0.01-0.12,0.01-0.18c-0.12-0.07-0.12-0.13,0-0.2c0.06-0.13,0.13-0.26,0.19-0.39
	c0.59-0.12,1.18-0.41,1.78-0.03c-0.03,0.03-0.05,0.07-0.08,0.1c-0.12,0.06-0.24,0.07-0.37,0.04c-0.13-0.02-0.25-0.02-0.37,0.03
	c-0.32,0.15-0.42,0.53-0.72,0.7c-0.09,0.03-0.17,0.02-0.24-0.04C54.2,48.25,54.14,48.24,54.07,48.23z"/>
<path class="st91" d="M56.45,47.05c0.1,0.2,0.11,0.4-0.02,0.59c-0.12,0.06-0.23,0.11-0.35,0.17l-0.01,0.01
	c-0.07-0.04-0.12-0.09-0.13-0.17c0.01-0.08,0.04-0.14,0.11-0.19l0.02-0.03c0.31-0.2,0.01-0.38-0.01-0.57
	C56.21,46.86,56.34,46.92,56.45,47.05z"/>
<path class="st185" d="M59.56,55.09c-0.06,0-0.11-0.01-0.17-0.03c0.02-0.44-0.35-0.79-0.37-1.23c0.38-0.12,0.49,0.2,0.7,0.3
	c0.07,0.19,0.15,0.38,0.22,0.57C59.7,54.71,59.57,54.85,59.56,55.09z"/>
<path class="st185" d="M59.6,55.45c-0.01-0.12-0.02-0.24-0.03-0.36c0.16,0.08,0.19,0.23,0.2,0.39
	C59.71,55.48,59.65,55.47,59.6,55.45z"/>
<path class="st185" d="M59.95,54.71c0.07,0.06,0.13,0.13,0.2,0.19C60.09,54.83,60.02,54.77,59.95,54.71z"/>
<path class="st186" d="M53.88,54.1c-0.27,0.56-0.54,1.11-0.58,1.74c-0.01,0.1-0.02,0.2-0.07,0.28c-0.12,0.22-0.23,0.52-0.55,0.43
	c-0.28-0.08-0.21-0.38-0.19-0.59c0.1-0.81,0.24-1.6,0.77-2.27c0.22-0.17,0.32-0.54,0.69-0.44c0.25,0.07,0.25,0.26,0.13,0.46l0,0
	C53.95,53.81,54.02,54.02,53.88,54.1z"/>
<path class="st187" d="M54.09,53.73c-0.04-0.24-0.11-0.46-0.42-0.26c-0.13,0.08-0.27,0.16-0.4,0.24c0.01-0.25,0.2-0.44,0.15-0.73
	c-0.17-0.95,0.09-1.44,0.98-1.83c0.29-0.13,0.23-0.45,0.46-0.58c0.24,0.24,0.38,0.57,0.62,0.82c-0.09,0.1-0.2,0.15-0.34,0.17
	c-0.83,0.13-1.22,0.82-0.93,1.65C54.28,53.42,54.27,53.59,54.09,53.73z"/>
<path class="st188" d="M55.48,51.39c-0.63,0.05-0.63-0.38-0.62-0.82c0.12-0.25,0.46-0.16,0.59-0.38c0.06-0.07,0.13-0.13,0.21-0.18
	l0.01,0.01c0.17,0.01,0.34,0.02,0.52,0.03c0.25,0.62-0.31,0.9-0.56,1.31C55.58,51.37,55.53,51.38,55.48,51.39z"/>
<path class="st187" d="M53.88,54.1c0.01-0.16,0.05-0.3,0.21-0.38c-0.01,0.12-0.03,0.24-0.04,0.35C53.99,54.1,53.94,54.1,53.88,54.1z
	"/>
<path class="st43" d="M55.66,50.02c-0.04,0.1-0.11,0.16-0.21,0.18c0-0.06,0-0.13,0-0.19C55.52,50.01,55.59,50.01,55.66,50.02z"/>
<path class="st113" d="M71.94,58.63c0.41-0.36,0.59-0.84,0.72-1.34c0.04-0.15,0.03-0.35,0.25-0.35c0.24,0,0.33,0.19,0.34,0.39
	c0.02,0.29,0.01,0.58,0.01,0.87c-0.48,0.81-1.04,1.56-1.71,2.22c-0.29,0.28-0.61,0.47-0.98,0.63c-0.15,0.06-0.32,0.11-0.45-0.04
	c-0.14-0.17-0.01-0.3,0.1-0.41c0.39-0.39,0.78-0.78,1.17-1.18C71.62,59.19,71.88,58.98,71.94,58.63z"/>
<path class="st189" d="M57.19,55.72c0,0.22,0.02,0.45,0,0.67c-0.02,0.16-0.1,0.32-0.29,0.32c-0.13,0-0.24-0.13-0.24-0.26
	c-0.01-0.45-0.01-0.9,0.01-1.34c0.01-0.16,0.13-0.31,0.31-0.31c0.21,0,0.23,0.18,0.24,0.35c0.01,0.19,0,0.39,0,0.58
	C57.22,55.72,57.2,55.72,57.19,55.72z"/>
<path class="st90" d="M54.27,48.26c0.06-0.02,0.12-0.03,0.19-0.04c0.33-0.19,0.64-0.15,0.92,0.1c0.03,0.04,0.05,0.08,0.08,0.12
	c0,0.07,0,0.14-0.01,0.21c-0.22-0.02-0.45-0.05-0.73-0.08c0,0.6-0.16,1.07-0.89,1.11c-0.12,0.01-0.23,0.21-0.34,0.32
	c0-0.07-0.01-0.14-0.01-0.21c-0.15-0.19-0.15-0.38,0.01-0.56c-0.04-0.2-0.32-0.41,0.02-0.59c0.12,0.06,0.24,0.08,0.36,0.11
	c0,0,0.04-0.05,0.04-0.06c-0.08-0.06-0.1-0.14-0.07-0.23C54,48.44,54.17,48.42,54.27,48.26z"/>
<path class="st190" d="M70.07,56.1c-0.21-0.01-0.48,0.01-0.69-0.17c-0.16-0.14-0.23-0.32-0.15-0.52c0.08-0.21,0.26-0.32,0.46-0.22
	c0.41,0.19,0.83,0.08,1.25,0.12c0.13,0.01,0.26,0.04,0.31,0.19c0.06,0.19-0.05,0.3-0.19,0.39C70.77,56.07,70.45,56.1,70.07,56.1z"/>
<path class="st191" d="M61.12,46.88c-0.13-0.26-0.51-0.29-0.58-0.61c0.21-0.04,0.43,0.27,0.62-0.03c0.19,0.14,0.37,0.28,0.55,0.42
	c-0.01,0.18,0.24,0.1,0.26,0.25c0,0.08-0.03,0.14-0.09,0.19c0,0.01-0.01,0.01-0.01,0.03c0.01-0.05,0.04-0.09,0.09-0.13
	c0.16-0.11,0.33-0.1,0.5-0.02c0.18,0.11,0.21,0.29,0.21,0.48c0,0.17,0.07,0.31,0.21,0.41c-0.01,0.49-0.43,0.49-0.73,0.62
	c-0.09,0.04-0.17,0.02-0.24-0.04c-0.27-0.02-0.57,0.1-0.79-0.16c0.29-0.07,0.65,0.11,0.86-0.31C61.66,47.64,61.03,47.53,61.12,46.88
	z"/>
<path class="st192" d="M60.77,48.22c0.06-0.01,0.11,0,0.16,0.03c-0.14,0.23-0.34,0.17-0.55,0.12
	C60.48,48.25,60.63,48.25,60.77,48.22z"/>
<path class="st193" d="M61.92,48.44c0.05-0.02,0.1-0.04,0.16-0.05c0.2-0.05,0.26,0.03,0.22,0.22l0.01,0.02
	C62.16,48.61,61.97,48.67,61.92,48.44z"/>
<path class="st119" d="M67.94,55.35c0.29,0.01,0.38,0.2,0.41,0.44c0.02,0.2,0,0.42-0.26,0.42c-0.28,0.01-0.53-0.14-0.57-0.41
	C67.48,55.56,67.72,55.43,67.94,55.35z"/>
<path class="st194" d="M73.08,54.7c0.19-0.08,0.29-0.25,0.41-0.4c0.14-0.19,0.31-0.22,0.51-0.1c0.19,0.12,0.24,0.3,0.15,0.5
	c-0.05,0.12-0.09,0.25-0.18,0.34c-0.24,0.24-0.38,0.71-0.82,0.52C72.7,55.37,73.12,54.99,73.08,54.7L73.08,54.7z"/>
<path class="st195" d="M59.43,48.01c0.04-0.09,0.1-0.11,0.19-0.08c-0.02,0.04-0.04,0.08-0.05,0.12l-0.06-0.04L59.43,48.01z"/>
<path class="st196" d="M58.2,48.83c-0.09-0.03-0.17-0.05-0.26-0.08C58.09,48.57,58.13,48.76,58.2,48.83
	C58.2,48.84,58.2,48.83,58.2,48.83z"/>
<path class="st197" d="M71.3,48.25c-0.15,0.08-0.17,0.24-0.18,0.39c-0.44-0.09-0.71-0.88-1.31-0.32c-0.16,0.12-0.24,0.3-0.34,0.47
	c-0.07,0.1-0.17,0.15-0.29,0.17c-0.07,0.01-0.14,0-0.21,0c-0.06,0.01-0.12,0.04-0.18,0.08c-0.06,0.08-0.12,0.17-0.19,0.24
	c-0.07,0.03-0.13,0.03-0.19-0.02c-0.06-0.07-0.13-0.14-0.2-0.21c0.08-0.26,0.2-0.52,0.17-0.8c0.35-0.31,0.86-0.25,1.21-0.55
	c0.26-0.04,0.53-0.04,0.75-0.22c0.24,0.01,0.48,0.03,0.72,0.04C71.14,47.75,71.37,47.95,71.3,48.25z"/>
<path class="st198" d="M55.84,49.39c0.05-0.36-0.03-0.84,0.59-0.75c-0.02,0.25-0.03,0.49-0.05,0.73
	C56.21,49.42,56.03,49.44,55.84,49.39z"/>
<path class="st199" d="M53.49,49.23c0,0.19,0,0.38-0.01,0.56c-0.16-0.01-0.32-0.03-0.35-0.24C53.11,49.3,53.28,49.24,53.49,49.23z"
	/>
<path class="st39" d="M53.84,48.46c0.07,0.12,0.15,0.24,0.22,0.35l0-0.01c-0.26,0.17-0.46,0.17-0.55-0.17
	c0.07-0.05,0.14-0.1,0.21-0.16C53.76,48.48,53.8,48.47,53.84,48.46z"/>
<path class="st89" d="M54.09,47.84c0,0.07,0,0.13,0,0.2c-0.13,0-0.26,0-0.4,0C53.78,47.88,53.93,47.85,54.09,47.84z"/>
<path class="st200" d="M66.43,48.02c-0.01,0.13-0.01,0.27-0.02,0.41c-0.12,0.12-0.24,0.12-0.36-0.01c-0.35-0.84-1.06-0.8-1.78-0.73
	c-0.05-0.05-0.07-0.1-0.06-0.16s0.03-0.08,0.04-0.08c0.62-0.26,1.2-0.16,1.76,0.17C66.11,47.81,66.27,47.92,66.43,48.02z"/>
<path class="st201" d="M66.06,48.42c0.12,0,0.24,0.01,0.36,0.01c0.01,0.12,0.02,0.24,0.03,0.36c-0.03,0.17-0.05,0.34-0.22,0.43
	C65.93,49,66.01,48.7,66.06,48.42z"/>
<path class="st197" d="M68.17,49.2c-0.05,0.07-0.1,0.15-0.16,0.22C68.02,49.31,68.08,49.24,68.17,49.2z"/>
<path class="st196" d="M64.26,47.45c0,0.08,0.01,0.16,0.01,0.24c-0.6,0.44-1.3,0.66-1.98,0.93c-0.07-0.07-0.15-0.15-0.22-0.22
	c0.24-0.23,0.61-0.25,0.82-0.53c0.4,0,0.66-0.26,0.9-0.51C64.04,47.1,64.11,47.4,64.26,47.45z"/>
<path class="st202" d="M62.69,47.45c-0.15-0.08-0.18-0.23-0.18-0.38c0.01-0.12,0.08-0.21,0.18-0.26c0.07-0.03,0.14-0.06,0.2-0.09
	c0.2-0.01,0.4-0.03,0.6-0.04C63.22,46.93,62.95,47.19,62.69,47.45z"/>
<path class="st203" d="M62.89,46.71c-0.06,0.05-0.13,0.11-0.19,0.16c-0.26,0.14-0.52,0.14-0.79,0.01c-0.09-0.05-0.37,0.06-0.18-0.22
	C62.11,46.68,62.5,46.7,62.89,46.71z"/>
<path class="st204" d="M60.94,45.88c-0.01-0.06-0.03-0.13-0.02-0.19c0.03-0.17-0.11-0.45,0.16-0.46c0.23-0.01,0.24,0.26,0.26,0.45
	c-0.13,0.04-0.21,0.14-0.26,0.26C61.02,45.95,60.98,45.92,60.94,45.88z"/>
<path class="st191" d="M60.94,45.88c0.05,0.02,0.09,0.04,0.14,0.06c0.02,0.05,0.02,0.1,0,0.15C60.97,46.07,60.92,45.99,60.94,45.88z
	"/>
<path class="st205" d="M61.71,42.55c-0.28,0.02-0.47-0.11-0.56-0.37l-0.01,0c0.05-0.08,0.12-0.14,0.18-0.21l0.01,0
	c0.13-0.13,0.26-0.26,0.39-0.38C61.71,41.91,61.71,42.23,61.71,42.55z"/>
<path class="st85" d="M71.32,41c-0.05,0.08-0.11,0.15-0.16,0.23C71.16,41.11,71.22,41.04,71.32,41z"/>
<path class="st145" d="M73.83,38.07c-0.11,0.06-0.22,0.12-0.33,0.18c-0.01-0.12-0.03-0.25-0.05-0.37c0.01-0.07,0.01-0.14,0.02-0.2
	c0.12,0,0.24,0,0.36,0.01C73.83,37.8,73.83,37.93,73.83,38.07z"/>
<path class="st90" d="M55.26,47.66c0.02,0.27,0.59,0.4,0.19,0.78l-0.01-0.01c-0.22-0.23-0.74-0.35-0.31-0.82
	C55.18,47.62,55.22,47.64,55.26,47.66z"/>
<path class="st90" d="M56.04,47.65c0.01,0.06,0.02,0.12,0.02,0.17c-0.17,0.02-0.32-0.01-0.42-0.17c0.03-0.03,0.05-0.06,0.08-0.09
	C55.84,47.56,55.95,47.55,56.04,47.65z"/>
<path class="st90" d="M55.26,47.46c0.13,0,0.26,0,0.38,0c0.06,0.04,0.09,0.08,0.07,0.13c-0.02,0.04-0.04,0.06-0.06,0.06l-0.01,0.01
	c-0.13,0-0.25,0-0.38,0l-0.01-0.01c-0.07-0.04-0.09-0.09-0.06-0.13C55.21,47.48,55.24,47.46,55.26,47.46z"/>
<path class="st206" d="M62.82,43.78c0.46,0.02,0.96,0.54,0.93,0.96c-0.03,0.43-0.35,0.71-0.78,0.7c-0.5-0.02-0.87-0.39-0.85-0.88
	C62.13,44.13,62.46,43.76,62.82,43.78z"/>
<path class="st207" d="M60.93,43.15c-0.17,0.05-0.38,0.17-0.38-0.16c0-0.14,0-0.37,0.22-0.31C61.01,42.72,60.91,42.97,60.93,43.15
	C60.93,43.14,60.93,43.15,60.93,43.15z"/>
<path class="st84" d="M61.32,41.97c-0.06,0.07-0.12,0.14-0.18,0.21C61.16,42.08,61.22,42.01,61.32,41.97z"/>
<path class="st180" d="M55.26,47.46c0,0.06,0,0.12-0.01,0.19c-0.4,0.38,0.18,0.51,0.19,0.78c-0.34-0.02-0.64-0.25-0.99-0.21
	C54.68,47.92,54.73,47.44,55.26,47.46z"/>
<path class="st180" d="M55.65,47.65c0-0.06,0-0.13,0-0.19c0.13,0,0.26,0,0.39,0c0,0.06,0,0.13,0,0.19
	C55.91,47.65,55.78,47.65,55.65,47.65z"/>
<path class="st208" d="M55.25,51.11c-0.12-0.03-0.17-0.1-0.17-0.2c0-0.26,0.18-0.3,0.38-0.31c0.13,0,0.28,0.04,0.2,0.2
	C55.59,50.97,55.47,51.13,55.25,51.11z"/>
<path class="st128" d="M54.07,48.82c0.13-0.01,0.31-0.18,0.38,0.08c0.03,0.09-0.01,0.22-0.12,0.23
	C54.1,49.15,54.11,48.96,54.07,48.82C54.07,48.81,54.07,48.82,54.07,48.82z"/>
<path class="st209" d="M69.54,48.19c0.02-0.02,0.04-0.06,0.06-0.07c1-0.48,1.13-0.43,1.51,0.52c0.05,0.25,0.11,0.5,0.14,0.75
	c0.03,0.21,0.13,0.45-0.15,0.58c-0.13-0.06-0.25-0.12-0.32-0.25c-0.04-0.09-0.08-0.18-0.08-0.27c0.02-0.84-0.41-1.13-1.2-1
	C69.47,48.35,69.48,48.27,69.54,48.19z"/>
<path class="st210" d="M66.41,51.76c-0.06-0.14-0.11-0.27-0.17-0.41c0.37-0.19,0.8,0.08,1.16-0.18l-0.01,0.01
	c0.14-0.11,0.28-0.12,0.41,0.03c0.22,0.26,0.53,0.11,0.79,0.19c0,0.33-0.25,0.24-0.43,0.27c-0.3-0.02-0.59,0.01-0.88,0.09
	C66.99,51.73,66.7,51.84,66.41,51.76z"/>
<path class="st211" d="M68.96,48.82c0.12,0,0.23-0.01,0.34-0.01c0.15-0.11,0.25-0.02,0.34,0.1c0.06,0.13,0.07,0.27,0.03,0.41
	c-0.04,0.09-0.1,0.15-0.18,0.2c-0.18,0.02-0.36,0.01-0.53-0.06c-0.13,0-0.26-0.01-0.39-0.02c-0.08,0.04-0.14,0.02-0.18-0.05
	c0-0.05,0-0.09,0.01-0.14c0.06-0.01,0.12-0.02,0.17-0.05C68.63,49.01,69.14,49.27,68.96,48.82z"/>
<path class="st212" d="M66.41,51.76c0.26-0.13,0.52-0.21,0.82-0.13c0.13,0.07,0.32-0.02,0.4,0.16c-0.37,0.27-0.78,0.15-1.19,0.15
	c-0.05-0.03-0.08-0.07-0.07-0.11C66.39,51.79,66.4,51.76,66.41,51.76L66.41,51.76z"/>
<path class="st213" d="M70.91,49.8c0.06,0.06,0.13,0.11,0.19,0.17c-0.45,0.09-0.89,0.07-1.34,0c-0.06-0.11-0.04-0.2,0.07-0.27
	C70.21,49.52,70.57,49.53,70.91,49.8z"/>
<path class="st214" d="M68.19,51.56c0.13-0.06,0.27-0.11,0.4-0.17c0.12,0,0.25,0.01,0.37,0.01c0.07,0.04,0.09,0.08,0.08,0.13
	c-0.02,0.05-0.04,0.07-0.06,0.07c-0.24,0.24-0.53,0.15-0.81,0.14c-0.05-0.05-0.07-0.09-0.04-0.13
	C68.15,51.58,68.17,51.56,68.19,51.56z"/>
<path class="st215" d="M67.4,51.17c-0.34,0.38-0.77,0.15-1.16,0.18C66.59,51.01,67.01,51.2,67.4,51.17z"/>
<path class="st216" d="M69.09,52.21c-0.37,0.23-0.67,0.18-1.16,0.12C68.41,52.1,68.71,52.12,69.09,52.21z"/>
<path class="st217" d="M69.24,50.84c-0.01-0.11,0.06-0.17,0.14-0.21c0.13-0.05,0.26-0.03,0.31,0.1c0.04,0.1-0.05,0.17-0.14,0.21
	C69.42,51,69.32,50.96,69.24,50.84z"/>
<path class="st218" d="M69.17,50.19c-0.08,0.25-0.08,0.25-0.59,0.16c-0.13-0.11-0.12-0.22,0-0.33c0.06-0.01,0.12-0.01,0.17,0
	C68.88,50.12,69.06,50.08,69.17,50.19z"/>
<path class="st219" d="M68.19,51.56c0,0.06-0.01,0.12-0.02,0.18c-0.18,0.01-0.35,0.03-0.53,0.05c-0.13-0.05-0.27-0.11-0.4-0.16
	C67.55,51.61,67.87,51.59,68.19,51.56z"/>
<path class="st220" d="M67.29,50.45c-0.13,0.21-0.29,0.28-0.49,0.24c-0.07-0.01-0.07-0.09-0.02-0.15
	C66.92,50.37,67.09,50.38,67.29,50.45z"/>
<path class="st221" d="M67.77,50.96c0.05-0.04,0.09-0.09,0.15-0.11c0.15-0.06,0.35-0.1,0.39,0.1c0.04,0.22-0.18,0.2-0.34,0.21
	C67.9,51.09,67.78,51.08,67.77,50.96z"/>
<path class="st222" d="M68.98,51.61c-0.01-0.07-0.01-0.13-0.02-0.2c0.21-0.03,0.42-0.16,0.62,0.03
	C69.42,51.65,69.19,51.57,68.98,51.61z"/>
<path class="st104" d="M69.62,52.12c0.04-0.04,0.09-0.1,0.13-0.1c0.11,0,0.16,0.08,0.11,0.18c-0.02,0.04-0.11,0.07-0.16,0.06
	C69.67,52.25,69.65,52.17,69.62,52.12z"/>
<path class="st223" d="M68.59,50.02c0,0.11,0,0.22,0,0.33c-0.13,0.02-0.28,0.02-0.31-0.12C68.24,50.01,68.43,50.02,68.59,50.02z"/>
<path class="st197" d="M68.96,49.45c0.19-0.01,0.38-0.01,0.57-0.02c0.12,0.13,0.14,0.26-0.01,0.38
	C69.33,49.69,69.15,49.57,68.96,49.45z"/>
<path class="st224" d="M66.53,52.48c0.17-0.19,0.35-0.17,0.53-0.07C66.92,52.71,66.71,52.46,66.53,52.48z"/>
<path class="st47" d="M66.15,50.87c-0.2-0.23-0.14-0.41-0.03-0.63C66.32,50.47,66.28,50.66,66.15,50.87z"/>
<path class="st225" d="M67.77,50.54c-0.04-0.05-0.1-0.09-0.1-0.14c0.01-0.12,0.1-0.15,0.19-0.09c0.04,0.03,0.05,0.11,0.07,0.16
	C67.88,50.5,67.83,50.52,67.77,50.54z"/>
<path class="st215" d="M67.77,50.96c0.06,0.06,0.13,0.13,0.19,0.19c-0.06,0.02-0.11,0.03-0.16,0.05c-0.14-0.01-0.27-0.02-0.41-0.03
	C67.45,50.99,67.62,50.98,67.77,50.96z"/>
<path class="st211" d="M69.52,49.81c0-0.13,0.01-0.25,0.01-0.38c0.03-0.03,0.06-0.05,0.08-0.08c0.07,0.01,0.13,0.04,0.18,0.09
	c0.05,0.1,0.06,0.2-0.03,0.29c0,0.08,0,0.15,0,0.23C69.64,49.98,69.57,49.91,69.52,49.81z"/>
<path class="st223" d="M69.17,50.19c-0.16,0-0.31-0.02-0.41-0.17C68.93,50,69.08,50.03,69.17,50.19z"/>
<path class="st197" d="M68.39,49.38c0.06,0.01,0.12,0.03,0.18,0.05C68.47,49.57,68.42,49.53,68.39,49.38z"/>
<path class="st210" d="M66.41,51.76c0.01,0.06,0.03,0.12,0.04,0.18C66.3,51.91,66.27,51.85,66.41,51.76z"/>
<path class="st226" d="M61.91,47.06c0.11,0.1,0.23,0.21,0.36,0.33c-0.61,0.04-0.64,0.04-0.65-0.16
	C61.61,47.1,61.79,47.09,61.91,47.06C61.92,47.07,61.91,47.06,61.91,47.06z"/>
<path class="st227" d="M61.9,46.88c0.26,0,0.53,0,0.79-0.01c-0.06,0.07-0.13,0.13-0.19,0.2c-0.2,0-0.4,0-0.59-0.01l0.01,0.01
	C61.92,47,61.91,46.94,61.9,46.88z"/>
<path class="st228" d="M69.57,49.04c-0.09-0.08-0.18-0.15-0.27-0.23c0.08-0.21-0.05-0.49,0.24-0.62c0.01,0.09,0.02,0.18,0.03,0.27
	c0.25,0.09,0.66-0.14,0.75,0.25c0.06,0.27-0.26,0.31-0.47,0.38C69.75,49.1,69.66,49.08,69.57,49.04z"/>
<path class="st229" d="M68.96,48.82c0.02,0.16,0.34,0.22,0.22,0.34c-0.14,0.16-0.4,0.04-0.61,0.04c0.01-0.14,0.02-0.27,0.03-0.41
	c0.13-0.07,0.25-0.07,0.37,0.03L68.96,48.82z"/>
<path class="st230" d="M68.97,48.83c-0.12-0.01-0.25-0.02-0.37-0.03C68.74,48.63,68.87,48.58,68.97,48.83z"/>
<path class="st231" d="M69.74,49.03c0.04-0.24,0.33-0.13,0.41-0.32c-0.18-0.13-0.46-0.01-0.59-0.25c1.04-0.57,1.11-0.54,1.33,0.59
	c0.05,0.24,0.01,0.5,0.01,0.76c-0.38-0.02-0.76-0.04-1.15-0.06c-0.01-0.11-0.01-0.22-0.02-0.32c0-0.03,0.01-0.06,0.01-0.1
	c0-0.07,0-0.13-0.01-0.2C69.75,49.09,69.75,49.06,69.74,49.03z"/>
<path class="st232" d="M69.57,49.04c0.06-0.01,0.11-0.01,0.17-0.02l0.01-0.01c0.11,0.13,0.11,0.26,0,0.4l0,0
	c-0.04-0.02-0.09-0.04-0.14-0.06C69.6,49.25,69.59,49.15,69.57,49.04z"/>
<path class="st211" d="M69.75,49.41c0-0.13,0-0.26,0-0.4c0.11,0.04,0.23,0.11,0.24,0.23C70.01,49.41,69.86,49.4,69.75,49.41z"/>
<path class="st231" d="M58,51"/>
</svg>
